<svg version="1.1" id="Layer_1" xmlns="http://www.w3.org/2000/svg" xmlns:xlink="http://www.w3.org/1999/xlink" x="0px" y="0px"
	 width="100%" viewBox="0 0 1250 1094" enable-background="new 0 0 1250 1094" xml:space="preserve">
<path fill="#000000" opacity="1.000000" stroke="none" 
	d="
M890.000000,1095.000000 
	C593.333313,1095.000000 297.166656,1095.000000 1.000000,1095.000000 
	C1.000000,730.333313 1.000000,365.666656 1.000000,1.000000 
	C417.666656,1.000000 834.333313,1.000000 1251.000000,1.000000 
	C1251.000000,365.666656 1251.000000,730.333313 1251.000000,1095.000000 
	C1130.833374,1095.000000 1010.666687,1095.000000 890.000000,1095.000000 
M642.500000,824.000854 
	C657.162964,824.000854 671.827209,824.115234 686.488342,823.951538 
	C693.597717,823.872253 700.864685,824.110474 707.779297,822.762939 
	C738.581299,816.760315 754.458313,797.597839 759.961548,768.339844 
	C764.141052,746.119446 771.343079,724.983337 784.319580,706.444824 
	C794.021301,692.584717 805.288818,679.818848 815.890442,666.590820 
	C833.593201,644.502380 848.461243,620.782715 858.371155,594.103699 
	C865.810730,574.075195 870.619263,553.400635 871.820801,532.166138 
	C873.260010,506.732391 871.771240,481.365326 866.027954,456.375488 
	C860.505310,432.345764 851.808594,409.611084 838.987366,388.524689 
	C824.795105,365.183655 807.318970,344.734131 786.056458,327.426331 
	C767.755066,312.528931 747.900085,300.354248 726.285034,291.027802 
	C702.163025,280.619659 677.100830,274.042938 650.808167,271.858032 
	C631.713806,270.271271 612.688293,270.374786 593.832397,273.204529 
	C573.158142,276.307190 553.185913,282.353027 534.117126,291.079254 
	C510.714752,301.788574 489.011597,315.301147 470.062653,332.704773 
	C459.702789,342.219788 450.220581,352.798431 441.130371,363.562714 
	C427.122284,380.150543 416.551849,398.976044 408.118500,418.941559 
	C398.003754,442.887878 391.981262,467.977722 390.212128,493.828430 
	C388.878998,513.307556 389.566803,532.931885 393.150146,552.230774 
	C396.998322,572.955811 403.161133,593.044189 412.165985,612.136536 
	C422.661194,634.388855 436.250153,654.602173 452.475067,673.160278 
	C461.244568,683.190918 469.538513,693.736633 477.099121,704.703430 
	C491.523743,725.626770 499.286133,749.276611 504.100098,774.092346 
	C506.754181,787.773926 513.242676,799.787231 523.888062,808.973145 
	C536.478271,819.837280 551.579773,824.029480 568.019043,824.008789 
	C592.512695,823.978027 617.006348,824.000854 642.500000,824.000854 
M725.896484,862.393005 
	C719.883301,858.878784 713.186951,858.109009 706.470337,858.095337 
	C655.328064,857.991272 604.185547,857.988281 553.043274,858.072449 
	C549.656433,858.078003 546.173096,858.713440 542.902527,859.645142 
	C530.229736,863.255249 525.564453,872.648132 525.169922,884.267395 
	C524.749634,896.643250 524.931519,909.140869 526.205383,921.445007 
	C527.532715,934.266663 534.100281,944.707825 546.543213,949.479370 
	C558.470947,954.053284 564.989197,961.985291 567.073853,974.411926 
	C570.109741,992.508850 584.926575,1003.363098 602.162598,1003.077332 
	C622.147705,1002.745972 642.160278,1003.518433 662.127319,1002.832886 
	C677.585449,1002.302124 687.419312,996.643005 692.840576,981.313293 
	C697.660522,967.683838 703.855713,956.148987 717.337402,948.689514 
	C729.194702,942.128845 735.952515,930.684998 736.852234,916.931824 
	C737.579285,905.817993 737.501465,894.588379 736.831177,883.467407 
	C736.347961,875.450623 734.059082,867.654053 725.896484,862.393005 
M1078.982056,518.118591 
	C1079.317505,513.039001 1080.433838,507.858643 1079.794434,502.904907 
	C1078.962646,496.462738 1076.354248,490.148315 1069.396118,487.963867 
	C1062.587769,485.826447 1055.505737,483.415833 1048.497681,483.264648 
	C1022.854309,482.711609 997.189758,482.876892 971.537354,483.156860 
	C963.545410,483.244049 955.761230,484.570618 948.437683,488.810394 
	C936.198914,495.895752 934.907654,516.936707 943.247559,525.916077 
	C950.270264,533.477295 959.235596,535.821350 968.642151,535.846130 
	C997.740601,535.922729 1026.847534,535.599854 1055.936646,534.860229 
	C1066.548340,534.590454 1074.606323,529.134460 1078.982056,518.118591 
M227.502884,481.999695 
	C220.874466,482.332855 214.233612,482.509857 207.620529,483.035767 
	C197.657928,483.828003 189.884323,488.452179 186.155136,497.880493 
	C182.216736,507.837769 183.095062,517.548767 190.479645,525.973633 
	C197.498611,533.981384 207.259750,534.735291 216.760117,534.877808 
	C241.077606,535.242920 265.407593,535.221558 289.725128,534.858582 
	C296.705353,534.754456 303.947083,533.854431 310.559967,531.732910 
	C320.571899,528.520996 325.852234,520.277466 326.760254,510.176819 
	C327.542419,501.476318 324.315338,493.762878 316.841492,488.285034 
	C309.975098,483.252472 302.041595,482.137665 293.973450,482.066437 
	C272.151093,481.873596 250.325928,481.999878 227.502884,481.999695 
M841.398010,269.291748 
	C841.485596,272.888672 840.825623,276.699371 841.783020,280.047546 
	C847.662231,300.607239 871.461426,306.879028 886.670471,291.724579 
	C908.368958,270.104004 929.765625,248.179031 951.179016,226.274399 
	C960.693298,216.541901 962.096313,204.394547 952.711548,193.550018 
	C942.705994,181.988129 927.024780,178.511078 914.658081,190.854919 
	C892.863159,212.609528 870.995789,234.293884 849.438416,256.281830 
	C846.151978,259.633911 844.365479,264.456512 841.398010,269.291748 
M321.888733,236.606049 
	C340.339203,254.655807 358.849579,272.644958 377.206482,290.789368 
	C383.332153,296.844116 390.080933,300.364105 399.038788,300.135834 
	C409.014130,299.881622 424.341553,285.719666 422.278900,272.209991 
	C421.124420,264.648529 417.218445,258.985413 412.310455,253.989578 
	C391.992310,233.307831 371.553375,212.738129 350.810974,192.483459 
	C343.577606,185.420181 334.841553,180.391266 324.108673,184.100998 
	C310.708221,188.732773 296.900818,206.670578 310.337585,224.583588 
	C313.506897,228.808701 317.692596,232.271423 321.888733,236.606049 
M901.565369,814.933960 
	C905.826172,818.905334 910.184448,822.777954 914.328491,826.867615 
	C924.408813,836.815796 935.986938,837.991516 947.041260,829.125122 
	C958.394348,820.019165 961.529663,804.867371 952.333130,793.945374 
	C947.090149,787.718628 941.324524,781.913757 935.583679,776.127930 
	C919.052795,759.467285 902.241882,743.081116 885.881042,726.256409 
	C875.319336,715.395142 863.679443,714.025574 851.742004,723.144836 
	C845.011841,728.286011 837.325989,740.014832 842.614075,750.998230 
	C845.681458,757.369263 850.284485,763.285400 855.223633,768.417725 
	C870.235413,784.016296 885.746948,799.133911 901.565369,814.933960 
M362.001221,742.500366 
	C345.974121,758.528748 329.916016,774.526245 313.939941,790.605286 
	C309.474884,795.099121 306.411560,800.329590 305.964203,806.919006 
	C305.196136,818.232727 312.123871,825.021729 320.229492,830.800659 
	C323.281097,832.976318 327.307343,834.280701 331.063843,834.870422 
	C339.318787,836.166260 345.236481,830.921570 350.445557,825.813782 
	C371.745148,804.928162 392.771667,783.761719 413.732239,762.534180 
	C419.144897,757.052551 423.451447,750.445984 422.855469,742.419495 
	C422.114014,732.433350 416.954193,724.599731 407.711823,720.442810 
	C397.761932,715.967590 388.408386,718.367310 380.357391,725.256836 
	C374.164368,730.556458 368.436859,736.400146 362.001221,742.500366 
M657.677124,97.578827 
	C657.451294,92.764885 657.586182,87.901489 656.934082,83.146004 
	C654.724548,67.033325 642.579407,56.504143 625.080444,60.849232 
	C612.960876,63.858585 607.259338,75.518860 607.113403,87.168159 
	C606.758728,115.495522 606.739197,143.834457 607.192322,172.159012 
	C607.296814,178.689392 608.368042,186.061584 611.609863,191.482239 
	C616.392334,199.478958 624.623291,204.513000 634.593872,202.831039 
	C644.780151,201.112732 653.370361,196.313812 656.010315,185.208710 
	C657.182678,180.277008 657.885620,175.111664 657.905640,170.048843 
	C657.999756,146.219788 657.783081,122.389503 657.677124,97.578827 
z"/>
<path fill="#E9A185" opacity="1.000000" stroke="none" 
	d="
M642.000000,824.000854 
	C617.006348,824.000854 592.512695,823.978027 568.019043,824.008789 
	C551.579773,824.029480 536.478271,819.837280 523.888062,808.973145 
	C513.242676,799.787231 506.754181,787.773926 504.100098,774.092346 
	C499.286133,749.276611 491.523743,725.626770 477.099121,704.703430 
	C469.538513,693.736633 461.244568,683.190918 452.475067,673.160278 
	C436.250153,654.602173 422.661194,634.388855 412.165985,612.136536 
	C403.161133,593.044189 396.998322,572.955811 393.150146,552.230774 
	C389.566803,532.931885 388.878998,513.307556 390.212128,493.828430 
	C391.981262,467.977722 398.003754,442.887878 408.118500,418.941559 
	C416.551849,398.976044 427.122284,380.150543 441.130371,363.562714 
	C450.220581,352.798431 459.702789,342.219788 470.062653,332.704773 
	C489.011597,315.301147 510.714752,301.788574 534.117126,291.079254 
	C553.185913,282.353027 573.158142,276.307190 593.832397,273.204529 
	C612.688293,270.374786 631.713806,270.271271 650.808167,271.858032 
	C677.100830,274.042938 702.163025,280.619659 726.285034,291.027802 
	C747.900085,300.354248 767.755066,312.528931 786.056458,327.426331 
	C807.318970,344.734131 824.795105,365.183655 838.987366,388.524689 
	C851.808594,409.611084 860.505310,432.345764 866.027954,456.375488 
	C871.771240,481.365326 873.260010,506.732391 871.820801,532.166138 
	C870.619263,553.400635 865.810730,574.075195 858.371155,594.103699 
	C848.461243,620.782715 833.593201,644.502380 815.890442,666.590820 
	C805.288818,679.818848 794.021301,692.584717 784.319580,706.444824 
	C771.343079,724.983337 764.141052,746.119446 759.961548,768.339844 
	C754.458313,797.597839 738.581299,816.760315 707.779297,822.762939 
	C700.864685,824.110474 693.597717,823.872253 686.488342,823.951538 
	C671.827209,824.115234 657.162964,824.000854 642.000000,824.000854 
M481.543793,624.923462 
	C487.543884,632.267456 493.139435,639.991455 499.617126,646.886780 
	C522.466736,671.209717 538.115784,699.569763 547.987427,731.270874 
	C550.840881,740.434326 553.171936,749.768677 556.259766,758.848755 
	C559.561096,768.556213 564.665527,771.875610 574.987183,771.985657 
	C581.318298,772.053223 587.651733,772.069153 593.982361,771.980225 
	C602.931824,771.854431 606.967346,768.050049 606.940491,759.195679 
	C606.809082,715.872437 606.545288,672.549561 606.332520,629.226562 
	C606.291199,620.809204 602.966064,613.786255 597.262634,607.766846 
	C596.460510,606.920227 595.645386,606.085449 594.820129,605.261292 
	C580.908081,591.367554 566.916687,577.551941 553.112732,563.551697 
	C546.487976,556.832703 541.422852,549.012207 543.497803,539.080994 
	C547.818420,518.401001 570.028381,511.182343 585.867676,525.566895 
	C597.688782,536.302429 608.661438,547.979431 619.892639,559.354858 
	C628.808838,568.385559 633.563049,568.401245 642.346191,559.400146 
	C652.697388,548.792053 663.028748,538.153198 673.726257,527.900696 
	C677.243286,524.529968 681.598633,521.703552 686.055481,519.714905 
	C694.414673,515.985046 702.350037,517.780762 709.228577,523.696411 
	C716.496277,529.946777 720.405396,537.500671 718.294312,547.478821 
	C716.776672,554.652161 712.696899,560.122681 707.728210,565.152832 
	C694.966431,578.072571 682.259644,591.046753 669.447815,603.916626 
	C661.155823,612.246216 657.178040,622.119507 657.198792,633.933044 
	C657.271606,675.257385 657.076172,716.582275 657.096252,757.906921 
	C657.098328,762.153381 657.862183,766.399475 658.313599,771.070862 
	C670.028320,771.070862 681.332092,771.093811 692.635681,771.063110 
	C700.661682,771.041321 705.510620,767.810303 707.988159,760.175354 
	C709.565247,755.315491 710.443604,750.224609 711.562561,745.221008 
	C720.345398,705.947693 739.728027,672.554199 767.033081,643.253296 
	C812.051453,594.944214 830.295044,538.202209 816.924500,473.033386 
	C798.643127,383.929840 710.547729,309.359894 607.253540,325.167053 
	C562.569946,332.005005 524.284058,351.448792 493.556519,384.910461 
	C467.646027,413.126465 452.120270,446.488312 446.217133,484.206207 
	C442.987427,504.842468 442.468475,525.619812 446.622406,546.287842 
	C452.363434,574.852173 464.274109,600.689270 481.543793,624.923462 
z"/>
<path fill="#EBA286" opacity="1.000000" stroke="none" 
	d="
M726.161255,862.659668 
	C734.059082,867.654053 736.347961,875.450623 736.831177,883.467407 
	C737.501465,894.588379 737.579285,905.817993 736.852234,916.931824 
	C735.952515,930.684998 729.194702,942.128845 717.337402,948.689514 
	C703.855713,956.148987 697.660522,967.683838 692.840576,981.313293 
	C687.419312,996.643005 677.585449,1002.302124 662.127319,1002.832886 
	C642.160278,1003.518433 622.147705,1002.745972 602.162598,1003.077332 
	C584.926575,1003.363098 570.109741,992.508850 567.073853,974.411926 
	C564.989197,961.985291 558.470947,954.053284 546.543213,949.479370 
	C534.100281,944.707825 527.532715,934.266663 526.205383,921.445007 
	C524.931519,909.140869 524.749634,896.643250 525.169922,884.267395 
	C525.564453,872.648132 530.229736,863.255249 542.902527,859.645142 
	C546.173096,858.713440 549.656433,858.078003 553.043274,858.072449 
	C604.185547,857.988281 655.328064,857.991272 706.470337,858.095337 
	C713.186951,858.109009 719.883301,858.878784 726.161255,862.659668 
z"/>
<path fill="#E49E82" opacity="1.000000" stroke="none" 
	d="
M1078.908081,518.523804 
	C1074.606323,529.134460 1066.548340,534.590454 1055.936646,534.860229 
	C1026.847534,535.599854 997.740601,535.922729 968.642151,535.846130 
	C959.235596,535.821350 950.270264,533.477295 943.247559,525.916077 
	C934.907654,516.936707 936.198914,495.895752 948.437683,488.810394 
	C955.761230,484.570618 963.545410,483.244049 971.537354,483.156860 
	C997.189758,482.876892 1022.854309,482.711609 1048.497681,483.264648 
	C1055.505737,483.415833 1062.587769,485.826447 1069.396118,487.963867 
	C1076.354248,490.148315 1078.962646,496.462738 1079.794434,502.904907 
	C1080.433838,507.858643 1079.317505,513.039001 1078.908081,518.523804 
z"/>
<path fill="#E49E82" opacity="1.000000" stroke="none" 
	d="
M228.002380,481.999634 
	C250.325928,481.999878 272.151093,481.873596 293.973450,482.066437 
	C302.041595,482.137665 309.975098,483.252472 316.841492,488.285034 
	C324.315338,493.762878 327.542419,501.476318 326.760254,510.176819 
	C325.852234,520.277466 320.571899,528.520996 310.559967,531.732910 
	C303.947083,533.854431 296.705353,534.754456 289.725128,534.858582 
	C265.407593,535.221558 241.077606,535.242920 216.760117,534.877808 
	C207.259750,534.735291 197.498611,533.981384 190.479645,525.973633 
	C183.095062,517.548767 182.216736,507.837769 186.155136,497.880493 
	C189.884323,488.452179 197.657928,483.828003 207.620529,483.035767 
	C214.233612,482.509857 220.874466,482.332855 228.002380,481.999634 
z"/>
<path fill="#E59E83" opacity="1.000000" stroke="none" 
	d="
M841.641602,268.945343 
	C844.365479,264.456512 846.151978,259.633911 849.438416,256.281830 
	C870.995789,234.293884 892.863159,212.609528 914.658081,190.854919 
	C927.024780,178.511078 942.705994,181.988129 952.711548,193.550018 
	C962.096313,204.394547 960.693298,216.541901 951.179016,226.274399 
	C929.765625,248.179031 908.368958,270.104004 886.670471,291.724579 
	C871.461426,306.879028 847.662231,300.607239 841.783020,280.047546 
	C840.825623,276.699371 841.485596,272.888672 841.641602,268.945343 
z"/>
<path fill="#E79F84" opacity="1.000000" stroke="none" 
	d="
M321.649719,236.345459 
	C317.692596,232.271423 313.506897,228.808701 310.337585,224.583588 
	C296.900818,206.670578 310.708221,188.732773 324.108673,184.100998 
	C334.841553,180.391266 343.577606,185.420181 350.810974,192.483459 
	C371.553375,212.738129 391.992310,233.307831 412.310455,253.989578 
	C417.218445,258.985413 421.124420,264.648529 422.278900,272.209991 
	C424.341553,285.719666 409.014130,299.881622 399.038788,300.135834 
	C390.080933,300.364105 383.332153,296.844116 377.206482,290.789368 
	C358.849579,272.644958 340.339203,254.655807 321.649719,236.345459 
z"/>
<path fill="#E39C82" opacity="1.000000" stroke="none" 
	d="
M901.314575,814.686401 
	C885.746948,799.133911 870.235413,784.016296 855.223633,768.417725 
	C850.284485,763.285400 845.681458,757.369263 842.614075,750.998230 
	C837.325989,740.014832 845.011841,728.286011 851.742004,723.144836 
	C863.679443,714.025574 875.319336,715.395142 885.881042,726.256409 
	C902.241882,743.081116 919.052795,759.467285 935.583679,776.127930 
	C941.324524,781.913757 947.090149,787.718628 952.333130,793.945374 
	C961.529663,804.867371 958.394348,820.019165 947.041260,829.125122 
	C935.986938,837.991516 924.408813,836.815796 914.328491,826.867615 
	C910.184448,822.777954 905.826172,818.905334 901.314575,814.686401 
z"/>
<path fill="#E69F83" opacity="1.000000" stroke="none" 
	d="
M362.251770,742.251099 
	C368.436859,736.400146 374.164368,730.556458 380.357391,725.256836 
	C388.408386,718.367310 397.761932,715.967590 407.711823,720.442810 
	C416.954193,724.599731 422.114014,732.433350 422.855469,742.419495 
	C423.451447,750.445984 419.144897,757.052551 413.732239,762.534180 
	C392.771667,783.761719 371.745148,804.928162 350.445557,825.813782 
	C345.236481,830.921570 339.318787,836.166260 331.063843,834.870422 
	C327.307343,834.280701 323.281097,832.976318 320.229492,830.800659 
	C312.123871,825.021729 305.196136,818.232727 305.964203,806.919006 
	C306.411560,800.329590 309.474884,795.099121 313.939941,790.605286 
	C329.916016,774.526245 345.974121,758.528748 362.251770,742.251099 
z"/>
<path fill="#E8A084" opacity="1.000000" stroke="none" 
	d="
M657.677246,98.069244 
	C657.783081,122.389503 657.999756,146.219788 657.905640,170.048843 
	C657.885620,175.111664 657.182678,180.277008 656.010315,185.208710 
	C653.370361,196.313812 644.780151,201.112732 634.593872,202.831039 
	C624.623291,204.513000 616.392334,199.478958 611.609863,191.482239 
	C608.368042,186.061584 607.296814,178.689392 607.192322,172.159012 
	C606.739197,143.834457 606.758728,115.495522 607.113403,87.168159 
	C607.259338,75.518860 612.960876,63.858585 625.080444,60.849232 
	C642.579407,56.504143 654.724548,67.033325 656.934082,83.146004 
	C657.586182,87.901489 657.451294,92.764885 657.677246,98.069244 
z"/>
<path fill="#040302" opacity="1.000000" stroke="none" 
	d="
M481.322632,624.639771 
	C464.274109,600.689270 452.363434,574.852173 446.622406,546.287842 
	C442.468475,525.619812 442.987427,504.842468 446.217133,484.206207 
	C452.120270,446.488312 467.646027,413.126465 493.556519,384.910461 
	C524.284058,351.448792 562.569946,332.005005 607.253540,325.167053 
	C710.547729,309.359894 798.643127,383.929840 816.924500,473.033386 
	C830.295044,538.202209 812.051453,594.944214 767.033081,643.253296 
	C739.728027,672.554199 720.345398,705.947693 711.562561,745.221008 
	C710.443604,750.224609 709.565247,755.315491 707.988159,760.175354 
	C705.510620,767.810303 700.661682,771.041321 692.635681,771.063110 
	C681.332092,771.093811 670.028320,771.070862 658.313599,771.070862 
	C657.862183,766.399475 657.098328,762.153381 657.096252,757.906921 
	C657.076172,716.582275 657.271606,675.257385 657.198792,633.933044 
	C657.178040,622.119507 661.155823,612.246216 669.447815,603.916626 
	C682.259644,591.046753 694.966431,578.072571 707.728210,565.152832 
	C712.696899,560.122681 716.776672,554.652161 718.294312,547.478821 
	C720.405396,537.500671 716.496277,529.946777 709.228577,523.696411 
	C702.350037,517.780762 694.414673,515.985046 686.055481,519.714905 
	C681.598633,521.703552 677.243286,524.529968 673.726257,527.900696 
	C663.028748,538.153198 652.697388,548.792053 642.346191,559.400146 
	C633.563049,568.401245 628.808838,568.385559 619.892639,559.354858 
	C608.661438,547.979431 597.688782,536.302429 585.867676,525.566895 
	C570.028381,511.182343 547.818420,518.401001 543.497803,539.080994 
	C541.422852,549.012207 546.487976,556.832703 553.112732,563.551697 
	C566.916687,577.551941 580.908081,591.367554 594.820129,605.261292 
	C595.645386,606.085449 596.460510,606.920227 597.262634,607.766846 
	C602.966064,613.786255 606.291199,620.809204 606.332520,629.226562 
	C606.545288,672.549561 606.809082,715.872437 606.940491,759.195679 
	C606.967346,768.050049 602.931824,771.854431 593.982361,771.980225 
	C587.651733,772.069153 581.318298,772.053223 574.987183,771.985657 
	C564.665527,771.875610 559.561096,768.556213 556.259766,758.848755 
	C553.171936,749.768677 550.840881,740.434326 547.987427,731.270874 
	C538.115784,699.569763 522.466736,671.209717 499.617126,646.886780 
	C493.139435,639.991455 487.543884,632.267456 481.322632,624.639771 
z"/>
</svg>