<svg version="1.1" id="Layer_1" xmlns="http://www.w3.org/2000/svg" xmlns:xlink="http://www.w3.org/1999/xlink" x="0px" y="0px"
	 width="100%" viewBox="0 0 2544 1569" enable-background="new 0 0 2544 1569" xml:space="preserve">
<path fill="#FFFFFF" opacity="1.000000" stroke="none" 
	d="
M1890.000000,1570.000000 
	C1260.000000,1570.000000 630.500000,1570.000000 1.000000,1570.000000 
	C1.000000,1047.000000 1.000000,524.000000 1.000000,1.000000 
	C849.000000,1.000000 1697.000000,1.000000 2545.000000,1.000000 
	C2545.000000,524.000000 2545.000000,1047.000000 2545.000000,1570.000000 
	C2326.833252,1570.000000 2108.666748,1570.000000 1890.000000,1570.000000 
M563.624695,1434.440918 
	C563.752380,1426.680664 563.980347,1418.920288 563.957886,1411.160400 
	C563.949036,1408.100098 563.381775,1405.041260 563.019165,1401.049438 
	C562.358276,1392.823975 562.365051,1384.479248 560.921875,1376.393433 
	C554.410034,1339.907593 535.348389,1311.241455 505.295288,1289.881470 
	C476.891296,1269.693726 445.049500,1261.905396 410.794312,1267.263062 
	C385.937195,1271.150879 362.751801,1280.198730 342.835144,1296.482300 
	C324.801514,1311.226440 311.378815,1329.206665 304.236877,1351.330200 
	C300.515686,1362.857300 297.404175,1374.853516 296.223816,1386.854858 
	C294.955292,1399.752930 294.899109,1413.104980 296.759186,1425.903442 
	C300.188049,1449.495728 311.085114,1469.880493 327.038574,1487.781616 
	C337.952881,1500.028442 350.143311,1510.625488 364.352692,1518.498901 
	C388.552063,1531.907593 414.553131,1537.074097 442.305908,1534.142212 
	C464.974121,1531.747559 485.935028,1525.189331 504.650635,1512.074707 
	C512.577087,1506.520508 520.470703,1500.830078 525.790710,1492.242065 
	C518.555054,1485.363159 511.566650,1478.732788 504.593811,1472.086060 
	C496.890869,1464.743774 489.161163,1457.428467 481.531067,1450.010986 
	C479.045929,1447.595215 477.141754,1447.469360 473.895081,1449.346558 
	C454.148651,1460.765137 433.298828,1468.175293 410.089264,1462.879761 
	C395.084412,1459.456177 383.711060,1451.036133 379.010101,1436.022705 
	C438.453491,1436.015137 497.896881,1436.016724 557.340210,1435.957886 
	C559.228943,1435.956055 561.117065,1435.333984 563.000000,1435.000000 
	C563.000000,1435.000000 563.001343,1435.005371 563.624695,1434.440918 
M953.028748,1441.987183 
	C953.669922,1428.085327 952.960999,1413.958618 955.230469,1400.327881 
	C960.107239,1371.036865 977.273071,1350.453735 1004.643860,1339.158691 
	C1014.408569,1335.129150 1025.117065,1333.386353 1035.701172,1330.516846 
	C1035.701172,1307.662354 1035.701172,1284.081299 1035.701172,1258.926514 
	C1020.489685,1262.046631 1005.704529,1264.421387 991.285278,1268.194458 
	C970.802551,1273.554199 952.465637,1283.687134 936.834290,1297.875854 
	C915.446960,1317.289307 898.665405,1339.846069 890.266418,1368.224609 
	C885.433960,1384.552490 882.234985,1400.957520 882.109009,1417.874268 
	C881.848389,1452.862915 882.001343,1487.854492 882.002380,1522.844971 
	C882.002441,1524.670532 882.021301,1526.519653 882.299622,1528.316162 
	C882.697510,1530.883545 883.937744,1532.110962 886.974548,1532.085083 
	C908.966553,1531.896973 930.960510,1531.942017 953.627075,1531.421265 
	C953.751648,1530.775391 953.984619,1530.129517 953.985413,1529.483521 
	C954.018860,1501.859619 954.043823,1474.235718 954.006775,1446.611816 
	C954.005127,1445.377808 953.415771,1444.144409 953.028748,1441.987183 
M1755.937744,1531.975342 
	C1779.176270,1531.975342 1802.414795,1531.975342 1825.489990,1531.975342 
	C1825.489990,1403.851196 1825.489990,1276.569214 1825.489990,1149.332275 
	C1824.647217,1149.248047 1824.286865,1149.107056 1824.000977,1149.198608 
	C1805.071289,1155.255371 1786.108521,1161.212402 1767.239746,1167.453857 
	C1757.509521,1170.672363 1754.003784,1176.063599 1754.003296,1186.539795 
	C1754.002563,1204.698853 1754.021973,1222.857788 1753.984619,1241.949463 
	C1753.987183,1337.064941 1753.984985,1432.180298 1754.034424,1527.295776 
	C1754.035278,1528.838867 1754.665527,1530.381592 1755.937744,1531.975342 
M49.031406,1277.493164 
	C49.269920,1277.984253 49.508434,1278.475464 49.869480,1279.900024 
	C49.894623,1282.065674 49.949104,1284.231445 49.940678,1286.396973 
	C49.630207,1366.157104 49.358761,1445.917603 48.893642,1525.676880 
	C48.863846,1530.786377 50.373421,1532.113892 55.389969,1532.104126 
	C132.036621,1531.954590 208.683655,1532.000000 285.330597,1532.000000 
	C287.091644,1532.000000 288.852692,1532.000000 290.705811,1532.000000 
	C290.705811,1508.357422 290.705811,1485.446655 290.705811,1461.877930 
	C235.056595,1461.877930 179.697266,1461.877930 123.931908,1461.877930 
	C123.931908,1361.311768 123.931908,1261.404297 123.931908,1161.349976 
	C123.032967,1161.465088 122.538338,1161.459351 122.087051,1161.596313 
	C101.909622,1167.719727 81.699707,1173.739746 61.578259,1180.042236 
	C52.317978,1182.942749 49.362873,1189.819092 49.143383,1201.443481 
	C48.668499,1226.594116 49.024605,1251.760498 49.031406,1277.493164 
M1127.414062,1265.366943 
	C1126.934570,1265.251099 1126.455200,1265.034668 1125.975464,1265.034180 
	C1104.378906,1265.009644 1082.782227,1264.989624 1061.185791,1265.040039 
	C1060.151611,1265.042358 1059.119141,1265.686523 1058.026001,1266.963257 
	C1058.026001,1354.514160 1058.026001,1442.065186 1058.026001,1529.647583 
	C1082.008789,1531.252563 1105.209717,1532.805298 1129.000000,1534.397461 
	C1129.000000,1531.375977 1129.000000,1529.418579 1129.000000,1527.461060 
	C1129.000000,1482.312012 1128.852295,1437.162354 1129.093384,1392.014526 
	C1129.162476,1379.063721 1133.301636,1367.349854 1142.649780,1357.804077 
	C1152.838867,1347.399292 1165.209839,1343.398071 1179.557983,1343.946899 
	C1195.057861,1344.539917 1207.160889,1351.107788 1216.218140,1363.507080 
	C1223.354492,1373.276489 1225.828979,1384.647461 1225.897095,1396.347534 
	C1226.148193,1439.495850 1225.984253,1482.646484 1225.976318,1525.796265 
	C1225.975952,1527.722778 1225.976318,1529.649170 1225.976318,1531.679932 
	C1249.970703,1531.679932 1273.204956,1531.679932 1296.573853,1531.679932 
	C1296.742676,1530.765869 1296.948853,1530.137329 1296.962769,1529.504639 
	C1297.325439,1513.058838 1297.986328,1496.611572 1297.942139,1480.166504 
	C1297.869263,1453.056152 1297.590454,1425.940430 1296.885254,1398.840454 
	C1296.572144,1386.805298 1295.845337,1374.660278 1293.829834,1362.816406 
	C1290.192505,1341.441650 1279.452271,1323.335571 1264.288940,1308.171997 
	C1251.751953,1295.634644 1236.648682,1286.676758 1219.946045,1280.487915 
	C1200.437988,1273.259277 1180.350098,1271.066162 1159.842407,1273.997681 
	C1149.956543,1275.411011 1140.244507,1278.041260 1130.160278,1280.182861 
	C1129.833740,1278.802612 1129.298340,1277.070190 1129.032593,1275.297485 
	C1128.571899,1272.222168 1128.277954,1269.121704 1127.414062,1265.366943 
M1718.610840,1387.419434 
	C1718.739868,1386.775757 1718.981201,1386.132324 1718.981812,1385.488525 
	C1719.003540,1363.882690 1719.019165,1342.276733 1718.959839,1320.671021 
	C1718.956421,1319.467529 1718.305176,1318.265869 1717.024658,1317.019653 
	C1661.455200,1317.019653 1605.885742,1317.019653 1550.404785,1317.019653 
	C1550.404785,1287.870239 1550.404785,1259.634888 1550.404785,1230.840820 
	C1606.708008,1230.840820 1662.609375,1230.840820 1718.678711,1230.840820 
	C1718.678711,1207.708252 1718.678711,1185.140259 1718.678711,1162.441650 
	C1637.005493,1162.441650 1555.654541,1162.441650 1474.395996,1162.441650 
	C1474.395996,1285.775879 1474.395996,1408.667969 1474.395996,1531.647217 
	C1499.707642,1531.647217 1524.606323,1531.647217 1550.064941,1531.647217 
	C1550.064941,1483.722900 1550.064941,1436.153442 1550.064941,1387.936646 
	C1606.401978,1387.936646 1662.178711,1387.936646 1718.610840,1387.419434 
M1152.145264,779.223816 
	C1152.472656,780.158752 1152.813232,781.089233 1153.125488,782.029175 
	C1161.536011,807.340149 1184.683228,823.990051 1211.461548,824.001282 
	C1240.127808,824.013306 1268.794922,824.166870 1297.460205,824.007507 
	C1316.243896,823.903137 1335.042847,823.728638 1353.800415,822.849121 
	C1363.675903,822.385986 1372.744873,818.242249 1380.829102,812.577515 
	C1396.084229,801.888000 1403.688354,786.478210 1406.988403,768.603271 
	C1411.746948,742.828003 1421.867676,719.276428 1437.360474,698.237366 
	C1445.979858,686.532471 1455.905640,675.799072 1464.936401,664.385376 
	C1479.347290,646.172119 1492.044922,626.913513 1501.324463,605.452454 
	C1512.800659,578.911316 1519.101562,551.198181 1519.765503,522.440308 
	C1520.107544,507.628052 1518.426270,492.717682 1516.927979,477.925720 
	C1514.374023,452.711243 1506.526978,428.894867 1495.524780,406.219696 
	C1477.284668,368.627441 1450.601440,338.024902 1416.305054,314.269989 
	C1376.988525,287.037964 1333.132446,272.700897 1285.412109,271.231201 
	C1269.776001,270.749695 1253.951538,272.151428 1238.397217,274.134735 
	C1205.251465,278.361145 1175.037964,290.853180 1147.259277,309.252289 
	C1126.345459,323.104340 1107.647583,339.430939 1091.561646,358.810211 
	C1076.658936,376.763885 1064.177124,396.220917 1055.310913,417.704163 
	C1041.490112,451.192780 1033.738403,486.001892 1037.107178,522.503662 
	C1038.452759,537.082825 1040.206299,551.718750 1043.202881,566.029663 
	C1048.215088,589.966675 1058.025391,612.235046 1070.233398,633.343506 
	C1081.109375,652.148926 1095.192993,668.609802 1109.413940,684.948303 
	C1124.557983,702.347473 1136.043335,721.990479 1143.032471,743.996887 
	C1146.617676,755.285217 1149.048584,766.940125 1152.145264,779.223816 
M2207.178955,1297.271729 
	C2204.432373,1288.919678 2201.540039,1280.611206 2199.012939,1272.193359 
	C2198.035889,1268.938110 2196.539795,1267.878906 2193.075928,1267.907837 
	C2171.246094,1268.089844 2149.414307,1267.993408 2127.583008,1268.015381 
	C2126.170410,1268.016846 2124.757568,1268.239136 2122.921387,1268.394531 
	C2123.503662,1270.490112 2123.853027,1272.079712 2124.383057,1273.606445 
	C2132.543213,1297.110962 2140.753418,1320.598389 2148.899170,1344.107910 
	C2160.953125,1378.896118 2172.957520,1413.701416 2184.997559,1448.494385 
	C2194.272705,1475.296387 2203.647705,1502.064331 2212.761475,1528.921021 
	C2213.921387,1532.338867 2215.632080,1533.098877 2218.894531,1533.062744 
	C2232.391357,1532.913086 2245.904297,1532.630859 2259.385742,1533.109863 
	C2271.454834,1533.538818 2275.664062,1528.240723 2278.834229,1517.959595 
	C2282.835449,1504.983032 2286.554688,1491.919556 2290.560303,1478.944458 
	C2297.405273,1456.772827 2304.363037,1434.635864 2311.316895,1412.498169 
	C2312.300781,1409.365601 2313.528809,1406.309937 2314.643799,1403.218750 
	C2318.546143,1412.605225 2321.365479,1421.774048 2324.099121,1430.968384 
	C2332.118652,1457.940918 2339.982910,1484.960327 2348.149414,1511.888062 
	C2352.878662,1527.482178 2357.016602,1534.608643 2376.612061,1533.993286 
	C2385.902588,1533.701538 2395.216797,1532.745605 2404.473145,1533.154907 
	C2415.057129,1533.622925 2419.155273,1527.998047 2421.905518,1520.768555 
	C2424.086426,1515.035889 2426.016113,1509.206543 2428.006348,1503.402710 
	C2443.719482,1457.585449 2459.390381,1411.753540 2475.136719,1365.947632 
	C2484.356689,1339.126343 2493.751953,1312.365112 2502.924805,1285.527588 
	C2504.826904,1279.962524 2506.094971,1274.180664 2508.066895,1267.000000 
	C2486.265625,1267.000000 2465.494629,1266.981201 2444.723877,1267.009277 
	C2436.444824,1267.020386 2432.655029,1269.727783 2429.976318,1277.730713 
	C2427.451172,1285.275879 2425.193359,1292.910034 2422.711182,1300.469971 
	C2413.810303,1327.575684 2404.951904,1354.695679 2395.876465,1381.742920 
	C2393.516357,1388.776855 2390.427490,1395.566162 2387.267334,1403.485229 
	C2386.484375,1401.624146 2386.186768,1401.050049 2385.995361,1400.442627 
	C2372.844482,1358.710938 2359.681885,1316.982910 2346.578125,1275.236450 
	C2344.318359,1268.036987 2344.434814,1268.000000 2336.764160,1268.000000 
	C2321.765625,1267.999756 2306.764648,1268.149780 2291.770264,1267.899292 
	C2287.800781,1267.832886 2285.992188,1268.859619 2284.818359,1272.839111 
	C2279.334229,1291.428589 2273.481689,1309.909302 2267.761719,1328.429077 
	C2262.384766,1345.838623 2257.032715,1363.255981 2251.620850,1380.654541 
	C2249.236572,1388.320068 2246.730957,1395.947876 2244.280273,1403.592773 
	C2243.912109,1403.558228 2243.543945,1403.523682 2243.175781,1403.489136 
	C2231.283203,1368.325439 2219.390869,1333.161743 2207.178955,1297.271729 
M840.001465,1284.500366 
	C840.001465,1278.084839 840.001465,1271.669312 840.001465,1265.330933 
	C816.200073,1265.330933 793.279724,1265.330933 770.322754,1265.330933 
	C769.467896,1268.325562 768.659180,1271.015503 767.936401,1273.728271 
	C767.117615,1276.801514 765.665039,1277.546021 762.478210,1276.268311 
	C742.114441,1268.103638 721.022095,1264.079468 698.977173,1264.928345 
	C682.729553,1265.554077 667.267395,1269.078369 652.524841,1275.802979 
	C632.940674,1284.736206 616.176819,1297.326050 602.399048,1313.993408 
	C592.713806,1325.709961 584.875793,1338.389282 579.697815,1352.686768 
	C571.542419,1375.205322 568.944458,1398.167603 572.875305,1421.986694 
	C577.482422,1449.903809 589.354248,1474.089478 608.363220,1494.841309 
	C620.771240,1508.387085 636.060059,1517.872314 652.717651,1525.290283 
	C668.900635,1532.496826 685.901184,1536.423706 703.559631,1536.932251 
	C722.123962,1537.466919 740.129639,1534.007568 757.379456,1527.184448 
	C763.145142,1524.903809 768.307373,1522.592041 773.275208,1528.495728 
	C774.091309,1529.465698 776.002686,1529.543091 777.427551,1529.967407 
	C796.282410,1535.582031 815.316833,1534.511353 834.450439,1531.707764 
	C839.097900,1531.026855 840.115173,1528.912598 840.106995,1524.442505 
	C839.961609,1444.795288 840.001465,1365.147705 840.001465,1284.500366 
M1974.891846,1534.839111 
	C1977.362915,1535.079102 1979.831543,1535.494263 1982.305420,1535.528931 
	C1992.608032,1535.673218 2003.099487,1536.973999 2013.173584,1535.488770 
	C2030.077515,1532.996826 2046.239624,1527.429199 2061.464600,1519.300659 
	C2091.433594,1503.300781 2112.603516,1479.692627 2124.168701,1447.677246 
	C2131.852783,1426.405396 2133.513672,1404.498901 2131.106934,1382.087646 
	C2129.328125,1365.520508 2124.366699,1349.998779 2116.547119,1335.447998 
	C2108.134521,1319.793335 2096.730469,1306.514771 2082.862549,1295.313354 
	C2059.633057,1276.550781 2032.818237,1266.970337 2003.351318,1265.224243 
	C1991.529297,1264.523682 1979.445679,1265.511597 1967.681030,1267.159302 
	C1945.802979,1270.223633 1926.680054,1280.014038 1910.142212,1294.467407 
	C1892.892944,1309.542969 1879.853027,1327.881836 1870.597290,1348.846191 
	C1860.031982,1372.776733 1856.611572,1397.582520 1861.655762,1423.418579 
	C1865.067261,1440.891724 1872.043945,1456.917358 1881.096313,1472.117920 
	C1889.162109,1485.661987 1899.373169,1497.510742 1911.434692,1507.509644 
	C1929.583740,1522.555298 1950.728394,1531.211060 1974.891846,1534.839111 
M1381.581177,873.117371 
	C1377.392578,861.959778 1368.013916,858.208130 1357.494019,858.146118 
	C1303.836792,857.829407 1250.175903,857.826477 1196.518677,858.145447 
	C1185.484253,858.210999 1175.061279,864.502075 1173.175537,877.136719 
	C1171.659546,887.295288 1170.655762,897.737427 1171.226196,907.953186 
	C1172.149414,924.488708 1179.995605,938.267883 1193.348267,947.890076 
	C1204.449707,955.890015 1212.157959,965.126160 1215.326050,978.851196 
	C1218.122925,990.967163 1225.809692,1000.023071 1239.046021,1002.013367 
	C1247.017334,1003.212036 1255.143311,1003.868164 1263.202393,1003.892456 
	C1277.978882,1003.936829 1292.764771,1003.522522 1307.533325,1002.953064 
	C1326.824219,1002.209167 1334.859253,996.028809 1339.904785,980.012939 
	C1344.246216,966.232727 1351.732666,956.115051 1364.425659,948.660400 
	C1377.666626,940.883911 1384.423584,928.329224 1384.040283,912.437988 
	C1383.819214,903.277954 1384.193726,894.102112 1383.905884,884.945801 
	C1383.788696,881.219910 1382.625488,877.526855 1381.581177,873.117371 
M1593.051636,490.489197 
	C1592.338013,491.189423 1591.604980,491.870911 1590.913818,492.592590 
	C1580.471191,503.496307 1582.290039,522.464539 1594.997314,530.057495 
	C1600.538696,533.368652 1607.538086,535.279846 1614.024536,535.744995 
	C1626.292358,536.624634 1638.669556,536.121338 1650.998535,535.971069 
	C1668.781006,535.754395 1686.659546,536.395020 1704.317383,534.745361 
	C1726.810791,532.643982 1730.763550,512.211304 1724.844849,496.165619 
	C1723.797119,493.325226 1720.997437,490.820038 1718.448364,488.902618 
	C1710.712646,483.084473 1701.420776,483.111267 1692.358398,483.054382 
	C1667.197754,482.896515 1642.034912,482.893677 1616.874390,483.059692 
	C1608.539551,483.114685 1600.434448,484.616486 1593.051636,490.489197 
M1592.256226,187.082367 
	C1578.744995,179.377853 1568.399170,183.390106 1558.820923,192.969208 
	C1537.432007,214.359497 1516.262451,235.969070 1495.008423,257.494232 
	C1486.090942,266.525482 1485.567505,281.347931 1493.835205,290.312714 
	C1504.965942,302.381927 1518.340698,304.306885 1529.269775,295.161224 
	C1534.098511,291.120483 1538.708008,286.784607 1543.138306,282.306915 
	C1562.088745,263.153717 1580.951904,243.913818 1599.806641,224.666183 
	C1603.772583,220.617508 1605.822754,215.612396 1605.968750,209.975510 
	C1606.231201,199.842453 1600.762939,192.929565 1592.256226,187.082367 
M964.003052,488.450531 
	C958.006592,483.626312 950.666809,482.196747 943.492676,482.184906 
	C913.713440,482.135742 883.916992,482.205933 854.161316,483.231262 
	C842.075378,483.647736 833.659119,490.263763 831.166138,503.242249 
	C828.970337,514.673523 834.097900,527.654541 843.151611,530.758118 
	C849.764038,533.024841 856.921814,534.686340 863.869446,534.813232 
	C889.526428,535.281677 915.200867,535.238281 940.859680,534.822571 
	C946.806030,534.726257 952.957336,533.043396 958.588074,530.946228 
	C967.726013,527.542847 973.040222,520.219238 973.820374,510.631836 
	C974.511902,502.133423 972.191162,494.209991 964.003052,488.450531 
M1554.422607,747.076965 
	C1546.764038,739.700134 1538.728271,732.671509 1531.529175,724.870605 
	C1518.415771,710.661072 1499.705444,716.968750 1491.614624,731.107971 
	C1483.916138,744.561462 1487.753418,753.858887 1498.453979,764.822632 
	C1517.515259,784.353027 1536.877197,803.595032 1556.378174,822.687317 
	C1560.798950,827.015503 1565.819458,831.391968 1571.407593,833.728882 
	C1582.935425,838.549805 1598.412354,829.919739 1603.049194,817.471619 
	C1606.188721,809.043579 1606.133423,801.112000 1599.757935,794.351074 
	C1584.941406,778.638550 1569.881714,763.155212 1554.422607,747.076965 
M1067.875244,266.015930 
	C1064.925903,261.853180 1062.458008,257.221893 1058.942993,253.609619 
	C1044.536011,238.804367 1030.104980,223.997299 1015.093933,209.814148 
	C1005.620239,200.862900 995.159912,192.945587 984.991028,184.752075 
	C983.580200,183.615326 981.326172,183.199707 979.417236,183.057800 
	C963.851807,181.900681 953.089478,196.605270 951.977295,208.797913 
	C951.192444,217.401840 955.464539,223.865463 961.052795,229.433105 
	C981.680176,249.984665 1002.513855,270.329407 1023.308533,290.712524 
	C1024.949463,292.320953 1026.833130,293.700348 1028.695190,295.061523 
	C1038.146973,301.970947 1049.505005,301.733490 1057.772095,295.625153 
	C1067.511475,288.429016 1071.484375,277.374207 1067.875244,266.015930 
M1070.000000,743.473389 
	C1069.590820,731.687134 1060.606567,720.342224 1049.133301,718.309814 
	C1043.372559,717.289490 1037.161865,716.851440 1032.116577,721.372620 
	C1026.081665,726.780762 1019.759644,731.895264 1014.007324,737.587036 
	C995.416260,755.982666 976.799316,774.365234 958.760681,793.294495 
	C955.207214,797.023499 952.466736,803.128174 952.350098,808.206177 
	C952.087402,819.637756 959.103088,827.666748 968.859009,832.757019 
	C977.819519,837.432373 988.271423,835.078552 996.534607,826.888245 
	C1017.951416,805.660156 1039.245483,784.307129 1060.450684,762.867432 
	C1065.487183,757.775085 1069.637695,751.970642 1070.000000,743.473389 
M1305.000122,109.502411 
	C1304.569824,99.232285 1305.148438,88.792816 1303.460205,78.733795 
	C1301.218384,65.376549 1288.545410,58.026157 1273.977051,60.029263 
	C1262.848022,61.559471 1254.011353,72.497841 1254.003296,84.796173 
	C1253.990967,103.513992 1254.000000,122.231819 1254.000000,140.949646 
	C1254.000000,153.111771 1254.077637,165.274551 1253.971802,177.435760 
	C1253.904785,185.142471 1256.382568,191.452362 1262.190796,196.812988 
	C1275.335327,208.944443 1298.714600,202.498611 1302.976562,185.120926 
	C1304.298096,179.732468 1304.848389,174.041306 1304.913696,168.478882 
	C1305.141235,149.155457 1305.000610,129.827698 1305.000122,109.502411 
z"/>
<path fill="#E9A185" opacity="1.000000" stroke="none" 
	d="
M1152.073242,778.826599 
	C1149.048584,766.940125 1146.617676,755.285217 1143.032471,743.996887 
	C1136.043335,721.990479 1124.557983,702.347473 1109.413940,684.948303 
	C1095.192993,668.609802 1081.109375,652.148926 1070.233398,633.343506 
	C1058.025391,612.235046 1048.215088,589.966675 1043.202881,566.029663 
	C1040.206299,551.718750 1038.452759,537.082825 1037.107178,522.503662 
	C1033.738403,486.001892 1041.490112,451.192780 1055.310913,417.704163 
	C1064.177124,396.220917 1076.658936,376.763885 1091.561646,358.810211 
	C1107.647583,339.430939 1126.345459,323.104340 1147.259277,309.252289 
	C1175.037964,290.853180 1205.251465,278.361145 1238.397217,274.134735 
	C1253.951538,272.151428 1269.776001,270.749695 1285.412109,271.231201 
	C1333.132446,272.700897 1376.988525,287.037964 1416.305054,314.269989 
	C1450.601440,338.024902 1477.284668,368.627441 1495.524780,406.219696 
	C1506.526978,428.894867 1514.374023,452.711243 1516.927979,477.925720 
	C1518.426270,492.717682 1520.107544,507.628052 1519.765503,522.440308 
	C1519.101562,551.198181 1512.800659,578.911316 1501.324463,605.452454 
	C1492.044922,626.913513 1479.347290,646.172119 1464.936401,664.385376 
	C1455.905640,675.799072 1445.979858,686.532471 1437.360474,698.237366 
	C1421.867676,719.276428 1411.746948,742.828003 1406.988403,768.603271 
	C1403.688354,786.478210 1396.084229,801.888000 1380.829102,812.577515 
	C1372.744873,818.242249 1363.675903,822.385986 1353.800415,822.849121 
	C1335.042847,823.728638 1316.243896,823.903137 1297.460205,824.007507 
	C1268.794922,824.166870 1240.127808,824.013306 1211.461548,824.001282 
	C1184.683228,823.990051 1161.536011,807.340149 1153.125488,782.029175 
	C1152.813232,781.089233 1152.472656,780.158752 1152.073242,778.826599 
M1325.500000,594.000244 
	C1323.261108,596.239624 1321.025024,598.481934 1318.782471,600.717834 
	C1308.690063,610.780457 1303.602905,622.428711 1303.799805,637.188049 
	C1304.366943,679.677612 1304.000000,722.179626 1304.000000,764.676758 
	C1304.000000,766.620361 1304.000000,768.563965 1304.000000,771.000488 
	C1316.902222,771.000488 1329.193604,770.976501 1341.484741,771.010803 
	C1347.425659,771.027344 1352.023926,768.524963 1353.951538,762.954041 
	C1356.094482,756.761047 1357.429443,750.281677 1358.998901,743.898193 
	C1365.801514,716.228333 1377.334839,690.695923 1394.583740,668.021606 
	C1405.021118,654.301147 1416.462524,641.343628 1427.474487,628.061157 
	C1451.697632,598.843262 1464.598022,564.896362 1467.758911,527.446045 
	C1469.360229,508.474640 1468.452515,489.316345 1463.978149,470.562714 
	C1450.529419,414.193268 1417.741699,372.697571 1367.126709,345.097809 
	C1345.234619,333.160339 1321.572998,326.154755 1296.819824,324.250549 
	C1275.480835,322.608948 1254.120117,323.994537 1233.180420,329.452301 
	C1190.284180,340.632904 1155.707153,364.670288 1128.744873,399.161682 
	C1097.443848,439.203400 1084.839844,484.855865 1091.882935,535.635864 
	C1094.707397,555.999817 1101.072144,575.112366 1109.818848,593.605713 
	C1120.519043,616.229553 1136.404541,635.103394 1152.403198,653.980957 
	C1169.280518,673.895142 1182.094238,696.303040 1190.980103,720.823975 
	C1195.476562,733.232605 1198.917969,746.020081 1203.048462,758.566467 
	C1205.300415,765.406555 1209.278931,770.806458 1217.250000,771.243042 
	C1225.198486,771.678467 1233.164917,771.885681 1241.125732,771.966858 
	C1249.896118,772.056274 1253.991821,767.931274 1253.994385,759.278748 
	C1254.006836,716.948303 1254.128418,674.616943 1253.836914,632.288452 
	C1253.800415,627.014954 1252.580811,621.177856 1250.055664,616.631714 
	C1246.565430,610.348572 1241.782104,604.586792 1236.724487,599.410828 
	C1224.852417,587.261108 1212.333374,575.745544 1200.384277,563.668457 
	C1193.615845,556.827698 1188.174927,549.201599 1190.970215,538.514526 
	C1195.509766,521.159424 1213.495605,511.176788 1229.852783,523.660889 
	C1237.983887,529.866760 1244.849854,537.776978 1252.038208,545.159485 
	C1260.708740,554.064148 1269.113892,563.227112 1277.993286,572.659973 
	C1287.953003,562.147888 1297.233154,551.938477 1306.982422,542.198669 
	C1314.359375,534.828918 1321.788330,527.299438 1330.201172,521.239319 
	C1338.285156,515.416077 1347.498901,516.972534 1355.175049,523.005615 
	C1362.822754,529.016296 1368.220947,536.865051 1364.864136,547.112183 
	C1362.968384,552.899414 1359.920044,558.806152 1355.875366,563.292542 
	C1346.402588,573.799622 1336.016357,583.483154 1325.500000,594.000244 
z"/>
<path fill="#EBE4BE" opacity="1.000000" stroke="none" 
	d="
M2207.338867,1297.634766 
	C2219.390869,1333.161743 2231.283203,1368.325439 2243.175781,1403.489136 
	C2243.543945,1403.523682 2243.912109,1403.558228 2244.280273,1403.592773 
	C2246.730957,1395.947876 2249.236572,1388.320068 2251.620850,1380.654541 
	C2257.032715,1363.255981 2262.384766,1345.838623 2267.761719,1328.429077 
	C2273.481689,1309.909302 2279.334229,1291.428589 2284.818359,1272.839111 
	C2285.992188,1268.859619 2287.800781,1267.832886 2291.770264,1267.899292 
	C2306.764648,1268.149780 2321.765625,1267.999756 2336.764160,1268.000000 
	C2344.434814,1268.000000 2344.318359,1268.036987 2346.578125,1275.236450 
	C2359.681885,1316.982910 2372.844482,1358.710938 2385.995361,1400.442627 
	C2386.186768,1401.050049 2386.484375,1401.624146 2387.267334,1403.485229 
	C2390.427490,1395.566162 2393.516357,1388.776855 2395.876465,1381.742920 
	C2404.951904,1354.695679 2413.810303,1327.575684 2422.711182,1300.469971 
	C2425.193359,1292.910034 2427.451172,1285.275879 2429.976318,1277.730713 
	C2432.655029,1269.727783 2436.444824,1267.020386 2444.723877,1267.009277 
	C2465.494629,1266.981201 2486.265625,1267.000000 2508.066895,1267.000000 
	C2506.094971,1274.180664 2504.826904,1279.962524 2502.924805,1285.527588 
	C2493.751953,1312.365112 2484.356689,1339.126343 2475.136719,1365.947632 
	C2459.390381,1411.753540 2443.719482,1457.585449 2428.006348,1503.402710 
	C2426.016113,1509.206543 2424.086426,1515.035889 2421.905518,1520.768555 
	C2419.155273,1527.998047 2415.057129,1533.622925 2404.473145,1533.154907 
	C2395.216797,1532.745605 2385.902588,1533.701538 2376.612061,1533.993286 
	C2357.016602,1534.608643 2352.878662,1527.482178 2348.149414,1511.888062 
	C2339.982910,1484.960327 2332.118652,1457.940918 2324.099121,1430.968384 
	C2321.365479,1421.774048 2318.546143,1412.605225 2314.643799,1403.218750 
	C2313.528809,1406.309937 2312.300781,1409.365601 2311.316895,1412.498169 
	C2304.363037,1434.635864 2297.405273,1456.772827 2290.560303,1478.944458 
	C2286.554688,1491.919556 2282.835449,1504.983032 2278.834229,1517.959595 
	C2275.664062,1528.240723 2271.454834,1533.538818 2259.385742,1533.109863 
	C2245.904297,1532.630859 2232.391357,1532.913086 2218.894531,1533.062744 
	C2215.632080,1533.098877 2213.921387,1532.338867 2212.761475,1528.921021 
	C2203.647705,1502.064331 2194.272705,1475.296387 2184.997559,1448.494385 
	C2172.957520,1413.701416 2160.953125,1378.896118 2148.899170,1344.107910 
	C2140.753418,1320.598389 2132.543213,1297.110962 2124.383057,1273.606445 
	C2123.853027,1272.079712 2123.503662,1270.490112 2122.921387,1268.394531 
	C2124.757568,1268.239136 2126.170410,1268.016846 2127.583008,1268.015381 
	C2149.414307,1267.993408 2171.246094,1268.089844 2193.075928,1267.907837 
	C2196.539795,1267.878906 2198.035889,1268.938110 2199.012939,1272.193359 
	C2201.540039,1280.611206 2204.432373,1288.919678 2207.338867,1297.634766 
z"/>
<path fill="#EBCCA9" opacity="1.000000" stroke="none" 
	d="
M1717.955444,1387.936646 
	C1662.178711,1387.936646 1606.401978,1387.936646 1550.064941,1387.936646 
	C1550.064941,1436.153442 1550.064941,1483.722900 1550.064941,1531.647217 
	C1524.606323,1531.647217 1499.707642,1531.647217 1474.395996,1531.647217 
	C1474.395996,1408.667969 1474.395996,1285.775879 1474.395996,1162.441650 
	C1555.654541,1162.441650 1637.005493,1162.441650 1718.678711,1162.441650 
	C1718.678711,1185.140259 1718.678711,1207.708252 1718.678711,1230.840820 
	C1662.609375,1230.840820 1606.708008,1230.840820 1550.404785,1230.840820 
	C1550.404785,1259.634888 1550.404785,1287.870239 1550.404785,1317.019653 
	C1605.885742,1317.019653 1661.455200,1317.019653 1717.507568,1317.503662 
	C1717.978638,1341.304077 1717.967041,1364.620361 1717.955444,1387.936646 
z"/>
<path fill="#EEB596" opacity="1.000000" stroke="none" 
	d="
M840.001465,1285.000244 
	C840.001465,1365.147705 839.961609,1444.795288 840.106995,1524.442505 
	C840.115173,1528.912598 839.097900,1531.026855 834.450439,1531.707764 
	C815.316833,1534.511353 796.282410,1535.582031 777.427551,1529.967407 
	C776.002686,1529.543091 774.091309,1529.465698 773.275208,1528.495728 
	C768.307373,1522.592041 763.145142,1524.903809 757.379456,1527.184448 
	C740.129639,1534.007568 722.123962,1537.466919 703.559631,1536.932251 
	C685.901184,1536.423706 668.900635,1532.496826 652.717651,1525.290283 
	C636.060059,1517.872314 620.771240,1508.387085 608.363220,1494.841309 
	C589.354248,1474.089478 577.482422,1449.903809 572.875305,1421.986694 
	C568.944458,1398.167603 571.542419,1375.205322 579.697815,1352.686768 
	C584.875793,1338.389282 592.713806,1325.709961 602.399048,1313.993408 
	C616.176819,1297.326050 632.940674,1284.736206 652.524841,1275.802979 
	C667.267395,1269.078369 682.729553,1265.554077 698.977173,1264.928345 
	C721.022095,1264.079468 742.114441,1268.103638 762.478210,1276.268311 
	C765.665039,1277.546021 767.117615,1276.801514 767.936401,1273.728271 
	C768.659180,1271.015503 769.467896,1268.325562 770.322754,1265.330933 
	C793.279724,1265.330933 816.200073,1265.330933 840.001465,1265.330933 
	C840.001465,1271.669312 840.001465,1278.084839 840.001465,1285.000244 
M743.067688,1453.575806 
	C750.864990,1448.407959 758.021912,1442.715332 762.350220,1434.013306 
	C769.737976,1419.159546 773.776245,1403.912354 770.498352,1387.148926 
	C765.213562,1360.122437 732.484558,1329.915283 697.460876,1336.833008 
	C666.092773,1343.028809 643.263489,1367.198730 642.202942,1399.298584 
	C641.545227,1419.206421 650.079956,1435.866333 664.801208,1449.326660 
	C676.135071,1459.689941 689.479858,1465.584229 704.736633,1465.848633 
	C718.425598,1466.085938 731.118530,1461.828125 743.067688,1453.575806 
z"/>
<path fill="#EFAE90" opacity="1.000000" stroke="none" 
	d="
M378.089661,1436.081299 
	C383.711060,1451.036133 395.084412,1459.456177 410.089264,1462.879761 
	C433.298828,1468.175293 454.148651,1460.765137 473.895081,1449.346558 
	C477.141754,1447.469360 479.045929,1447.595215 481.531067,1450.010986 
	C489.161163,1457.428467 496.890869,1464.743774 504.593811,1472.086060 
	C511.566650,1478.732788 518.555054,1485.363159 525.790710,1492.242065 
	C520.470703,1500.830078 512.577087,1506.520508 504.650635,1512.074707 
	C485.935028,1525.189331 464.974121,1531.747559 442.305908,1534.142212 
	C414.553131,1537.074097 388.552063,1531.907593 364.352692,1518.498901 
	C350.143311,1510.625488 337.952881,1500.028442 327.038574,1487.781616 
	C311.085114,1469.880493 300.188049,1449.495728 296.759186,1425.903442 
	C294.899109,1413.104980 294.955292,1399.752930 296.223816,1386.854858 
	C297.404175,1374.853516 300.515686,1362.857300 304.236877,1351.330200 
	C311.378815,1329.206665 324.801514,1311.226440 342.835144,1296.482300 
	C362.751801,1280.198730 385.937195,1271.150879 410.794312,1267.263062 
	C445.049500,1261.905396 476.891296,1269.693726 505.295288,1289.881470 
	C535.348389,1311.241455 554.410034,1339.907593 560.921875,1376.393433 
	C562.365051,1384.479248 562.358276,1392.823975 563.006470,1401.984253 
	C562.996277,1413.614502 562.998779,1424.309937 563.001343,1435.005371 
	C563.001343,1435.005371 563.000000,1435.000000 562.533447,1435.000000 
	C502.601135,1435.000122 443.135315,1434.990234 383.669525,1435.045410 
	C381.809265,1435.047241 379.949615,1435.720947 378.089661,1436.081299 
M480.014648,1359.550293 
	C473.842133,1350.202148 464.302612,1345.314453 454.468597,1341.335449 
	C434.221649,1333.143433 414.011841,1331.844604 394.469208,1343.836670 
	C386.131439,1348.952759 380.656677,1356.241333 377.080444,1365.519287 
	C413.007965,1365.519287 448.326477,1365.519287 484.239197,1365.519287 
	C482.708618,1363.315552 481.592346,1361.708374 480.014648,1359.550293 
z"/>
<path fill="#ECDEB8" opacity="1.000000" stroke="none" 
	d="
M1974.475342,1534.682617 
	C1950.728394,1531.211060 1929.583740,1522.555298 1911.434692,1507.509644 
	C1899.373169,1497.510742 1889.162109,1485.661987 1881.096313,1472.117920 
	C1872.043945,1456.917358 1865.067261,1440.891724 1861.655762,1423.418579 
	C1856.611572,1397.582520 1860.031982,1372.776733 1870.597290,1348.846191 
	C1879.853027,1327.881836 1892.892944,1309.542969 1910.142212,1294.467407 
	C1926.680054,1280.014038 1945.802979,1270.223633 1967.681030,1267.159302 
	C1979.445679,1265.511597 1991.529297,1264.523682 2003.351318,1265.224243 
	C2032.818237,1266.970337 2059.633057,1276.550781 2082.862549,1295.313354 
	C2096.730469,1306.514771 2108.134521,1319.793335 2116.547119,1335.447998 
	C2124.366699,1349.998779 2129.328125,1365.520508 2131.106934,1382.087646 
	C2133.513672,1404.498901 2131.852783,1426.405396 2124.168701,1447.677246 
	C2112.603516,1479.692627 2091.433594,1503.300781 2061.464600,1519.300659 
	C2046.239624,1527.429199 2030.077515,1532.996826 2013.173584,1535.488770 
	C2003.099487,1536.973999 1992.608032,1535.673218 1982.305420,1535.528931 
	C1979.831543,1535.494263 1977.362915,1535.079102 1974.475342,1534.682617 
M2058.844238,1412.149658 
	C2059.226562,1409.867065 2059.830811,1407.596680 2059.957764,1405.300049 
	C2061.242676,1382.061279 2052.952881,1363.014282 2034.327881,1348.942383 
	C2004.922852,1326.725830 1971.786133,1334.526001 1948.608887,1357.353516 
	C1934.221191,1371.524414 1929.793213,1389.741455 1932.856689,1410.033569 
	C1938.567505,1447.859375 1975.485107,1473.095215 2012.333618,1463.236328 
	C2038.120728,1456.337036 2052.715332,1438.512329 2058.844238,1412.149658 
z"/>
<path fill="#EDC6A4" opacity="1.000000" stroke="none" 
	d="
M1127.914062,1266.031860 
	C1128.277954,1269.121704 1128.571899,1272.222168 1129.032593,1275.297485 
	C1129.298340,1277.070190 1129.833740,1278.802612 1130.160278,1280.182861 
	C1140.244507,1278.041260 1149.956543,1275.411011 1159.842407,1273.997681 
	C1180.350098,1271.066162 1200.437988,1273.259277 1219.946045,1280.487915 
	C1236.648682,1286.676758 1251.751953,1295.634644 1264.288940,1308.171997 
	C1279.452271,1323.335571 1290.192505,1341.441650 1293.829834,1362.816406 
	C1295.845337,1374.660278 1296.572144,1386.805298 1296.885254,1398.840454 
	C1297.590454,1425.940430 1297.869263,1453.056152 1297.942139,1480.166504 
	C1297.986328,1496.611572 1297.325439,1513.058838 1296.962769,1529.504639 
	C1296.948853,1530.137329 1296.742676,1530.765869 1296.573853,1531.679932 
	C1273.204956,1531.679932 1249.970703,1531.679932 1225.976318,1531.679932 
	C1225.976318,1529.649170 1225.975952,1527.722778 1225.976318,1525.796265 
	C1225.984253,1482.646484 1226.148193,1439.495850 1225.897095,1396.347534 
	C1225.828979,1384.647461 1223.354492,1373.276489 1216.218140,1363.507080 
	C1207.160889,1351.107788 1195.057861,1344.539917 1179.557983,1343.946899 
	C1165.209839,1343.398071 1152.838867,1347.399292 1142.649780,1357.804077 
	C1133.301636,1367.349854 1129.162476,1379.063721 1129.093384,1392.014526 
	C1128.852295,1437.162354 1129.000000,1482.312012 1129.000000,1527.461060 
	C1129.000000,1529.418579 1129.000000,1531.375977 1129.000000,1534.397461 
	C1105.209717,1532.805298 1082.008789,1531.252563 1058.026001,1529.647583 
	C1058.026001,1442.065186 1058.026001,1354.514160 1058.516113,1266.485352 
	C1081.975586,1266.015503 1104.944824,1266.023682 1127.914062,1266.031860 
z"/>
<path fill="#EDA487" opacity="1.000000" stroke="none" 
	d="
M49.040836,1276.920410 
	C49.024605,1251.760498 48.668499,1226.594116 49.143383,1201.443481 
	C49.362873,1189.819092 52.317978,1182.942749 61.578259,1180.042236 
	C81.699707,1173.739746 101.909622,1167.719727 122.087051,1161.596313 
	C122.538338,1161.459351 123.032967,1161.465088 123.931908,1161.349976 
	C123.931908,1261.404297 123.931908,1361.311768 123.931908,1461.877930 
	C179.697266,1461.877930 235.056595,1461.877930 290.705811,1461.877930 
	C290.705811,1485.446655 290.705811,1508.357422 290.705811,1532.000000 
	C288.852692,1532.000000 287.091644,1532.000000 285.330597,1532.000000 
	C208.683655,1532.000000 132.036621,1531.954590 55.389969,1532.104126 
	C50.373421,1532.113892 48.863846,1530.786377 48.893642,1525.676880 
	C49.358761,1445.917603 49.630207,1366.157104 49.940678,1286.396973 
	C49.949104,1284.231445 49.894623,1282.065674 49.873306,1279.141602 
	C49.598370,1277.895630 49.319607,1277.408081 49.040836,1276.920410 
z"/>
<path fill="#EED7B3" opacity="1.000000" stroke="none" 
	d="
M1754.032837,1241.016846 
	C1754.021973,1222.857788 1754.002563,1204.698853 1754.003296,1186.539795 
	C1754.003784,1176.063599 1757.509521,1170.672363 1767.239746,1167.453857 
	C1786.108521,1161.212402 1805.071289,1155.255371 1824.000977,1149.198608 
	C1824.286865,1149.107056 1824.647217,1149.248047 1825.489990,1149.332275 
	C1825.489990,1276.569214 1825.489990,1403.851196 1825.489990,1531.975342 
	C1802.414795,1531.975342 1779.176270,1531.975342 1755.468872,1531.488892 
	C1754.998047,1436.407593 1755.002197,1341.812866 1754.954102,1247.218018 
	C1754.953003,1245.150879 1754.353271,1243.083862 1754.032837,1241.016846 
z"/>
<path fill="#EBA286" opacity="1.000000" stroke="none" 
	d="
M1381.759644,873.468140 
	C1382.625488,877.526855 1383.788696,881.219910 1383.905884,884.945801 
	C1384.193726,894.102112 1383.819214,903.277954 1384.040283,912.437988 
	C1384.423584,928.329224 1377.666626,940.883911 1364.425659,948.660400 
	C1351.732666,956.115051 1344.246216,966.232727 1339.904785,980.012939 
	C1334.859253,996.028809 1326.824219,1002.209167 1307.533325,1002.953064 
	C1292.764771,1003.522522 1277.978882,1003.936829 1263.202393,1003.892456 
	C1255.143311,1003.868164 1247.017334,1003.212036 1239.046021,1002.013367 
	C1225.809692,1000.023071 1218.122925,990.967163 1215.326050,978.851196 
	C1212.157959,965.126160 1204.449707,955.890015 1193.348267,947.890076 
	C1179.995605,938.267883 1172.149414,924.488708 1171.226196,907.953186 
	C1170.655762,897.737427 1171.659546,887.295288 1173.175537,877.136719 
	C1175.061279,864.502075 1185.484253,858.210999 1196.518677,858.145447 
	C1250.175903,857.826477 1303.836792,857.829407 1357.494019,858.146118 
	C1368.013916,858.208130 1377.392578,861.959778 1381.759644,873.468140 
z"/>
<path fill="#EEBD9C" opacity="1.000000" stroke="none" 
	d="
M952.953857,1531.913086 
	C930.960510,1531.942017 908.966553,1531.896973 886.974548,1532.085083 
	C883.937744,1532.110962 882.697510,1530.883545 882.299622,1528.316162 
	C882.021301,1526.519653 882.002441,1524.670532 882.002380,1522.844971 
	C882.001343,1487.854492 881.848389,1452.862915 882.109009,1417.874268 
	C882.234985,1400.957520 885.433960,1384.552490 890.266418,1368.224609 
	C898.665405,1339.846069 915.446960,1317.289307 936.834290,1297.875854 
	C952.465637,1283.687134 970.802551,1273.554199 991.285278,1268.194458 
	C1005.704529,1264.421387 1020.489685,1262.046631 1035.701172,1258.926514 
	C1035.701172,1284.081299 1035.701172,1307.662354 1035.701172,1330.516846 
	C1025.117065,1333.386353 1014.408569,1335.129150 1004.643860,1339.158691 
	C977.273071,1350.453735 960.107239,1371.036865 955.230469,1400.327881 
	C952.960999,1413.958618 953.669922,1428.085327 953.040344,1442.925293 
	C953.019226,1473.213379 952.986572,1502.563232 952.953857,1531.913086 
z"/>
<path fill="#E49E82" opacity="1.000000" stroke="none" 
	d="
M1593.324707,490.251740 
	C1600.434448,484.616486 1608.539551,483.114685 1616.874390,483.059692 
	C1642.034912,482.893677 1667.197754,482.896515 1692.358398,483.054382 
	C1701.420776,483.111267 1710.712646,483.084473 1718.448364,488.902618 
	C1720.997437,490.820038 1723.797119,493.325226 1724.844849,496.165619 
	C1730.763550,512.211304 1726.810791,532.643982 1704.317383,534.745361 
	C1686.659546,536.395020 1668.781006,535.754395 1650.998535,535.971069 
	C1638.669556,536.121338 1626.292358,536.624634 1614.024536,535.744995 
	C1607.538086,535.279846 1600.538696,533.368652 1594.997314,530.057495 
	C1582.290039,522.464539 1580.471191,503.496307 1590.913818,492.592590 
	C1591.604980,491.870911 1592.338013,491.189423 1593.324707,490.251740 
z"/>
<path fill="#E59E83" opacity="1.000000" stroke="none" 
	d="
M1592.575684,187.271942 
	C1600.762939,192.929565 1606.231201,199.842453 1605.968750,209.975510 
	C1605.822754,215.612396 1603.772583,220.617508 1599.806641,224.666183 
	C1580.951904,243.913818 1562.088745,263.153717 1543.138306,282.306915 
	C1538.708008,286.784607 1534.098511,291.120483 1529.269775,295.161224 
	C1518.340698,304.306885 1504.965942,302.381927 1493.835205,290.312714 
	C1485.567505,281.347931 1486.090942,266.525482 1495.008423,257.494232 
	C1516.262451,235.969070 1537.432007,214.359497 1558.820923,192.969208 
	C1568.399170,183.390106 1578.744995,179.377853 1592.575684,187.271942 
z"/>
<path fill="#E49E82" opacity="1.000000" stroke="none" 
	d="
M964.298462,488.667236 
	C972.191162,494.209991 974.511902,502.133423 973.820374,510.631836 
	C973.040222,520.219238 967.726013,527.542847 958.588074,530.946228 
	C952.957336,533.043396 946.806030,534.726257 940.859680,534.822571 
	C915.200867,535.238281 889.526428,535.281677 863.869446,534.813232 
	C856.921814,534.686340 849.764038,533.024841 843.151611,530.758118 
	C834.097900,527.654541 828.970337,514.673523 831.166138,503.242249 
	C833.659119,490.263763 842.075378,483.647736 854.161316,483.231262 
	C883.916992,482.205933 913.713440,482.135742 943.492676,482.184906 
	C950.666809,482.196747 958.006592,483.626312 964.298462,488.667236 
z"/>
<path fill="#E49D82" opacity="1.000000" stroke="none" 
	d="
M1554.671631,747.328003 
	C1569.881714,763.155212 1584.941406,778.638550 1599.757935,794.351074 
	C1606.133423,801.112000 1606.188721,809.043579 1603.049194,817.471619 
	C1598.412354,829.919739 1582.935425,838.549805 1571.407593,833.728882 
	C1565.819458,831.391968 1560.798950,827.015503 1556.378174,822.687317 
	C1536.877197,803.595032 1517.515259,784.353027 1498.453979,764.822632 
	C1487.753418,753.858887 1483.916138,744.561462 1491.614624,731.107971 
	C1499.705444,716.968750 1518.415771,710.661072 1531.529175,724.870605 
	C1538.728271,732.671509 1546.764038,739.700134 1554.671631,747.328003 
z"/>
<path fill="#E79F84" opacity="1.000000" stroke="none" 
	d="
M1067.957031,266.415894 
	C1071.484375,277.374207 1067.511475,288.429016 1057.772095,295.625153 
	C1049.505005,301.733490 1038.146973,301.970947 1028.695190,295.061523 
	C1026.833130,293.700348 1024.949463,292.320953 1023.308533,290.712524 
	C1002.513855,270.329407 981.680176,249.984665 961.052795,229.433105 
	C955.464539,223.865463 951.192444,217.401840 951.977295,208.797913 
	C953.089478,196.605270 963.851807,181.900681 979.417236,183.057800 
	C981.326172,183.199707 983.580200,183.615326 984.991028,184.752075 
	C995.159912,192.945587 1005.620239,200.862900 1015.093933,209.814148 
	C1030.104980,223.997299 1044.536011,238.804367 1058.942993,253.609619 
	C1062.458008,257.221893 1064.925903,261.853180 1067.957031,266.415894 
z"/>
<path fill="#E59E83" opacity="1.000000" stroke="none" 
	d="
M1070.000000,743.909363 
	C1069.637695,751.970642 1065.487183,757.775085 1060.450684,762.867432 
	C1039.245483,784.307129 1017.951416,805.660156 996.534607,826.888245 
	C988.271423,835.078552 977.819519,837.432373 968.859009,832.757019 
	C959.103088,827.666748 952.087402,819.637756 952.350098,808.206177 
	C952.466736,803.128174 955.207214,797.023499 958.760681,793.294495 
	C976.799316,774.365234 995.416260,755.982666 1014.007324,737.587036 
	C1019.759644,731.895264 1026.081665,726.780762 1032.116577,721.372620 
	C1037.161865,716.851440 1043.372559,717.289490 1049.133301,718.309814 
	C1060.606567,720.342224 1069.590820,731.687134 1070.000000,743.909363 
z"/>
<path fill="#E9A185" opacity="1.000000" stroke="none" 
	d="
M1305.000122,110.001999 
	C1305.000610,129.827698 1305.141235,149.155457 1304.913696,168.478882 
	C1304.848389,174.041306 1304.298096,179.732468 1302.976562,185.120926 
	C1298.714600,202.498611 1275.335327,208.944443 1262.190796,196.812988 
	C1256.382568,191.452362 1253.904785,185.142471 1253.971802,177.435760 
	C1254.077637,165.274551 1254.000000,153.111771 1254.000000,140.949646 
	C1254.000000,122.231819 1253.990967,103.513992 1254.003296,84.796173 
	C1254.011353,72.497841 1262.848022,61.559471 1273.977051,60.029263 
	C1288.545410,58.026157 1301.218384,65.376549 1303.460205,78.733795 
	C1305.148438,88.792816 1304.569824,99.232285 1305.000122,110.001999 
z"/>
<path fill="#DFD3C0" opacity="1.000000" stroke="none" 
	d="
M1754.008789,1241.483154 
	C1754.353271,1243.083862 1754.953003,1245.150879 1754.954102,1247.218018 
	C1755.002197,1341.812866 1754.998047,1436.407593 1755.000977,1531.463501 
	C1754.665527,1530.381592 1754.035278,1528.838867 1754.034424,1527.295776 
	C1753.984985,1432.180298 1753.987183,1337.064941 1754.008789,1241.483154 
z"/>
<path fill="#E6D7D2" opacity="1.000000" stroke="none" 
	d="
M378.549866,1436.052002 
	C379.949615,1435.720947 381.809265,1435.047241 383.669525,1435.045410 
	C443.135315,1434.990234 502.601135,1435.000122 562.536255,1435.000488 
	C561.117065,1435.333984 559.228943,1435.956055 557.340210,1435.957886 
	C497.896881,1436.016724 438.453491,1436.015137 378.549866,1436.052002 
z"/>
<path fill="#DFD3C0" opacity="1.000000" stroke="none" 
	d="
M953.290527,1531.667236 
	C952.986572,1502.563232 953.019226,1473.213379 953.076050,1443.387207 
	C953.415771,1444.144409 954.005127,1445.377808 954.006775,1446.611816 
	C954.043823,1474.235718 954.018860,1501.859619 953.985413,1529.483521 
	C953.984619,1530.129517 953.751648,1530.775391 953.290527,1531.667236 
z"/>
<path fill="#E6D7D2" opacity="1.000000" stroke="none" 
	d="
M1718.283203,1387.677979 
	C1717.967041,1364.620361 1717.978638,1341.304077 1717.972900,1317.525635 
	C1718.305176,1318.265869 1718.956421,1319.467529 1718.959839,1320.671021 
	C1719.019165,1342.276733 1719.003540,1363.882690 1718.981812,1385.488525 
	C1718.981201,1386.132324 1718.739868,1386.775757 1718.283203,1387.677979 
z"/>
<path fill="#DFD3C0" opacity="1.000000" stroke="none" 
	d="
M1127.664062,1265.699463 
	C1104.944824,1266.023682 1081.975586,1266.015503 1058.546143,1266.019531 
	C1059.119141,1265.686523 1060.151611,1265.042358 1061.185791,1265.040039 
	C1082.782227,1264.989624 1104.378906,1265.009644 1125.975464,1265.034180 
	C1126.455200,1265.034668 1126.934570,1265.251099 1127.664062,1265.699463 
z"/>
<path fill="#E6D7D2" opacity="1.000000" stroke="none" 
	d="
M563.312988,1434.723145 
	C562.998779,1424.309937 562.996277,1413.614502 563.031250,1402.450439 
	C563.381775,1405.041260 563.949036,1408.100098 563.957886,1411.160400 
	C563.980347,1418.920288 563.752380,1426.680664 563.312988,1434.723145 
z"/>
<path fill="#F4F1F0" opacity="1.000000" stroke="none" 
	d="
M49.036125,1277.206787 
	C49.319607,1277.408081 49.598370,1277.895630 49.812042,1278.674927 
	C49.508434,1278.475464 49.269920,1277.984253 49.036125,1277.206787 
z"/>
<path fill="#FFFFFF" opacity="1.000000" stroke="none" 
	d="
M1325.750000,593.750183 
	C1336.016357,583.483154 1346.402588,573.799622 1355.875366,563.292542 
	C1359.920044,558.806152 1362.968384,552.899414 1364.864136,547.112183 
	C1368.220947,536.865051 1362.822754,529.016296 1355.175049,523.005615 
	C1347.498901,516.972534 1338.285156,515.416077 1330.201172,521.239319 
	C1321.788330,527.299438 1314.359375,534.828918 1306.982422,542.198669 
	C1297.233154,551.938477 1287.953003,562.147888 1277.993286,572.659973 
	C1269.113892,563.227112 1260.708740,554.064148 1252.038208,545.159485 
	C1244.849854,537.776978 1237.983887,529.866760 1229.852783,523.660889 
	C1213.495605,511.176788 1195.509766,521.159424 1190.970215,538.514526 
	C1188.174927,549.201599 1193.615845,556.827698 1200.384277,563.668457 
	C1212.333374,575.745544 1224.852417,587.261108 1236.724487,599.410828 
	C1241.782104,604.586792 1246.565430,610.348572 1250.055664,616.631714 
	C1252.580811,621.177856 1253.800415,627.014954 1253.836914,632.288452 
	C1254.128418,674.616943 1254.006836,716.948303 1253.994385,759.278748 
	C1253.991821,767.931274 1249.896118,772.056274 1241.125732,771.966858 
	C1233.164917,771.885681 1225.198486,771.678467 1217.250000,771.243042 
	C1209.278931,770.806458 1205.300415,765.406555 1203.048462,758.566467 
	C1198.917969,746.020081 1195.476562,733.232605 1190.980103,720.823975 
	C1182.094238,696.303040 1169.280518,673.895142 1152.403198,653.980957 
	C1136.404541,635.103394 1120.519043,616.229553 1109.818848,593.605713 
	C1101.072144,575.112366 1094.707397,555.999817 1091.882935,535.635864 
	C1084.839844,484.855865 1097.443848,439.203400 1128.744873,399.161682 
	C1155.707153,364.670288 1190.284180,340.632904 1233.180420,329.452301 
	C1254.120117,323.994537 1275.480835,322.608948 1296.819824,324.250549 
	C1321.572998,326.154755 1345.234619,333.160339 1367.126709,345.097809 
	C1417.741699,372.697571 1450.529419,414.193268 1463.978149,470.562714 
	C1468.452515,489.316345 1469.360229,508.474640 1467.758911,527.446045 
	C1464.598022,564.896362 1451.697632,598.843262 1427.474487,628.061157 
	C1416.462524,641.343628 1405.021118,654.301147 1394.583740,668.021606 
	C1377.334839,690.695923 1365.801514,716.228333 1358.998901,743.898193 
	C1357.429443,750.281677 1356.094482,756.761047 1353.951538,762.954041 
	C1352.023926,768.524963 1347.425659,771.027344 1341.484741,771.010803 
	C1329.193604,770.976501 1316.902222,771.000488 1304.000000,771.000488 
	C1304.000000,768.563965 1304.000000,766.620361 1304.000000,764.676758 
	C1304.000000,722.179626 1304.366943,679.677612 1303.799805,637.188049 
	C1303.602905,622.428711 1308.690063,610.780457 1318.782471,600.717834 
	C1321.025024,598.481934 1323.261108,596.239624 1325.750000,593.750183 
z"/>
<path fill="#FFFFFF" opacity="1.000000" stroke="none" 
	d="
M742.781433,1453.797607 
	C731.118530,1461.828125 718.425598,1466.085938 704.736633,1465.848633 
	C689.479858,1465.584229 676.135071,1459.689941 664.801208,1449.326660 
	C650.079956,1435.866333 641.545227,1419.206421 642.202942,1399.298584 
	C643.263489,1367.198730 666.092773,1343.028809 697.460876,1336.833008 
	C732.484558,1329.915283 765.213562,1360.122437 770.498352,1387.148926 
	C773.776245,1403.912354 769.737976,1419.159546 762.350220,1434.013306 
	C758.021912,1442.715332 750.864990,1448.407959 742.781433,1453.797607 
z"/>
<path fill="#FFFFFF" opacity="1.000000" stroke="none" 
	d="
M480.245361,1359.825684 
	C481.592346,1361.708374 482.708618,1363.315552 484.239197,1365.519287 
	C448.326477,1365.519287 413.007965,1365.519287 377.080444,1365.519287 
	C380.656677,1356.241333 386.131439,1348.952759 394.469208,1343.836670 
	C414.011841,1331.844604 434.221649,1333.143433 454.468597,1341.335449 
	C464.302612,1345.314453 473.842133,1350.202148 480.245361,1359.825684 
z"/>
<path fill="#FFFFFF" opacity="1.000000" stroke="none" 
	d="
M2058.704590,1412.554443 
	C2052.715332,1438.512329 2038.120728,1456.337036 2012.333618,1463.236328 
	C1975.485107,1473.095215 1938.567505,1447.859375 1932.856689,1410.033569 
	C1929.793213,1389.741455 1934.221191,1371.524414 1948.608887,1357.353516 
	C1971.786133,1334.526001 2004.922852,1326.725830 2034.327881,1348.942383 
	C2052.952881,1363.014282 2061.242676,1382.061279 2059.957764,1405.300049 
	C2059.830811,1407.596680 2059.226562,1409.867065 2058.704590,1412.554443 
z"/>
</svg>