<svg version="1.1" id="Layer_1" xmlns="http://www.w3.org/2000/svg" xmlns:xlink="http://www.w3.org/1999/xlink" x="0px" y="0px"
	 width="100%" viewBox="0 0 2544 1569" enable-background="new 0 0 2544 1569" xml:space="preserve">
<path fill="#000000" opacity="1.000000" stroke="none" 
	d="
M1891.000000,1570.000000 
	C1260.666626,1570.000000 630.833313,1570.000000 1.000000,1570.000000 
	C1.000000,1047.000000 1.000000,524.000000 1.000000,1.000000 
	C849.000000,1.000000 1697.000000,1.000000 2545.000000,1.000000 
	C2545.000000,524.000000 2545.000000,1047.000000 2545.000000,1570.000000 
	C2327.166748,1570.000000 2109.333252,1570.000000 1891.000000,1570.000000 
M1825.520996,1531.903931 
	C1825.603760,1531.595947 1825.686523,1531.288086 1825.888916,1530.052246 
	C1825.893921,1404.539062 1825.899536,1279.026001 1825.898560,1153.512817 
	C1825.898560,1152.350220 1825.814331,1151.187500 1825.905640,1149.494629 
	C1825.598145,1149.384521 1825.290527,1149.274536 1824.220947,1149.064209 
	C1805.976929,1155.043335 1787.766479,1161.127930 1769.476807,1166.963867 
	C1757.701050,1170.721436 1753.996582,1175.390991 1754.001221,1187.543579 
	C1754.044678,1300.621948 1754.090942,1413.700439 1754.136353,1526.778809 
	C1754.136963,1528.390503 1754.136597,1530.002197 1754.136597,1531.836060 
	C1778.095825,1531.836060 1801.536987,1531.836060 1825.520996,1531.903931 
M1474.472046,1162.088623 
	C1474.378784,1162.390991 1474.285522,1162.693481 1474.055664,1163.924927 
	C1474.055664,1286.493164 1474.055664,1409.061523 1474.055664,1531.599854 
	C1499.750610,1531.599854 1524.791260,1531.599854 1550.133789,1531.599854 
	C1550.133789,1483.604980 1550.133789,1436.004028 1550.133789,1388.001221 
	C1606.345825,1388.001221 1662.253540,1388.001221 1718.424805,1388.001221 
	C1718.424805,1364.200806 1718.424805,1340.804199 1718.424805,1316.825928 
	C1662.139404,1316.825928 1606.113037,1316.825928 1550.330322,1316.825928 
	C1550.330322,1287.983765 1550.330322,1259.723755 1550.330322,1231.000000 
	C1552.450317,1231.000000 1554.244629,1231.000000 1556.038940,1231.000000 
	C1593.363770,1231.000000 1630.688477,1231.016724 1668.013306,1230.992310 
	C1684.671997,1230.981445 1701.330688,1230.887817 1718.521240,1230.900024 
	C1718.606567,1230.598145 1718.691895,1230.296143 1718.903442,1229.065308 
	C1718.861328,1207.047241 1718.819214,1185.029175 1718.899780,1162.488892 
	C1718.598022,1162.382202 1718.296143,1162.275513 1717.068848,1162.017334 
	C1637.540771,1162.011597 1558.012695,1162.005005 1478.484619,1162.006958 
	C1477.323975,1162.006958 1476.163452,1162.110840 1474.472046,1162.088623 
M1150.946533,773.647339 
	C1154.238892,788.377502 1160.837524,801.099976 1172.968750,810.601562 
	C1184.556885,819.677917 1197.829346,823.897888 1212.340576,823.946899 
	C1256.499756,824.096008 1300.659790,824.038391 1344.819214,823.938904 
	C1348.917358,823.929688 1353.089478,823.397583 1357.098877,822.521423 
	C1386.212646,816.159302 1401.688965,797.043091 1406.991821,768.615295 
	C1413.110596,735.814087 1427.992310,707.216736 1449.542114,682.143127 
	C1465.175171,663.953735 1480.413452,645.605652 1492.037354,624.490295 
	C1509.143433,593.416199 1518.376221,560.086853 1519.806396,524.774292 
	C1520.340454,511.590393 1518.971436,498.294647 1517.946533,485.090576 
	C1516.388550,465.021576 1511.399536,445.671509 1504.343262,426.867188 
	C1487.577515,382.188904 1459.690674,345.859741 1421.208252,317.808380 
	C1379.912231,287.706146 1333.480225,272.321625 1282.421875,271.071289 
	C1274.492554,270.877106 1266.541870,271.716888 1258.597290,271.952728 
	C1241.387451,272.463745 1224.647827,275.735840 1208.252930,280.749878 
	C1157.488770,296.275024 1116.500610,325.925415 1084.605713,368.018951 
	C1050.190186,413.438995 1034.129883,464.732391 1036.885498,521.885803 
	C1037.675903,538.280396 1039.947632,554.379333 1044.112671,570.150269 
	C1053.478638,605.614197 1069.907593,637.551697 1093.330200,665.846741 
	C1101.981689,676.297913 1110.939575,686.525024 1119.082031,697.361938 
	C1135.947632,719.808899 1145.548462,745.429871 1150.946533,773.647339 
M2298.025879,1454.631958 
	C2303.578125,1437.269287 2309.130127,1419.906494 2314.682373,1402.543823 
	C2321.796631,1422.700195 2328.088379,1442.577881 2334.103271,1462.539062 
	C2339.560059,1480.647949 2344.545410,1498.899414 2350.062256,1516.989380 
	C2353.768799,1529.142090 2360.756104,1534.115601 2373.289795,1533.959595 
	C2385.065186,1533.813110 2396.861084,1533.659668 2408.593750,1532.785156 
	C2411.784912,1532.547485 2415.472656,1530.319824 2417.684082,1527.875854 
	C2420.188965,1525.107544 2421.684570,1521.205688 2422.943115,1517.563110 
	C2447.327881,1446.998047 2471.641357,1376.408325 2495.892334,1305.797119 
	C2500.145752,1293.412476 2504.050049,1280.907959 2508.265625,1267.999634 
	C2491.897949,1267.999634 2476.572266,1268.058594 2461.247803,1267.956055 
	C2457.652344,1267.932007 2454.066650,1267.239624 2450.466309,1267.064209 
	C2436.354004,1266.376587 2432.844482,1268.684814 2429.087402,1280.191650 
	C2421.992188,1301.923340 2415.137207,1323.734131 2407.944336,1345.433105 
	C2401.555176,1364.706421 2394.843262,1383.872803 2388.273926,1403.086426 
	C2387.783936,1403.034912 2387.293945,1402.983276 2386.803955,1402.931641 
	C2384.201172,1394.765503 2381.587646,1386.602783 2378.997559,1378.432617 
	C2367.668945,1342.694092 2356.375244,1306.944092 2344.911621,1271.248901 
	C2344.478271,1269.899536 2342.433594,1268.153076 2341.122559,1268.138306 
	C2322.974121,1267.933472 2304.822754,1267.999756 2286.542725,1267.999756 
	C2272.369629,1313.706177 2258.256592,1359.219238 2243.812256,1405.800049 
	C2228.127686,1359.075684 2212.858887,1313.590210 2197.656250,1268.302490 
	C2172.617676,1268.302490 2147.891113,1268.302490 2122.836182,1268.302490 
	C2124.102051,1272.241211 2125.180664,1275.835693 2126.407715,1279.378662 
	C2155.263184,1362.701904 2184.153564,1446.013306 2212.923096,1529.366089 
	C2213.903564,1532.207397 2215.084961,1533.110107 2218.053223,1533.074463 
	C2231.881592,1532.907837 2245.731934,1532.564331 2259.538330,1533.140869 
	C2270.392334,1533.594238 2275.226074,1528.816772 2278.014404,1519.843018 
	C2284.683105,1498.380737 2291.328613,1476.911255 2298.025879,1454.631958 
M647.011169,1278.487305 
	C628.713501,1287.683594 612.993591,1300.207153 600.428589,1316.309814 
	C575.598694,1348.130493 566.244385,1384.322876 573.250671,1423.998047 
	C578.860046,1455.762573 593.510986,1483.017578 618.569519,1504.093628 
	C643.499634,1525.061768 672.480652,1535.673340 704.788635,1536.864990 
	C722.845886,1537.531128 740.438904,1533.934937 757.238525,1527.189697 
	C762.845215,1524.938721 767.942078,1522.799438 773.101624,1528.018311 
	C774.248535,1529.178833 776.317505,1529.651855 778.048584,1529.970459 
	C784.335205,1531.127319 790.664185,1532.051636 796.966980,1533.123291 
	C809.727783,1535.293091 822.257202,1533.195068 834.868225,1531.487549 
	C839.625183,1530.843384 840.072510,1528.636230 840.068298,1524.668213 
	C839.977417,1440.004639 839.999451,1355.340942 839.999451,1270.677246 
	C839.999451,1268.899536 839.999390,1267.121826 839.999390,1265.176270 
	C816.537781,1265.176270 793.588806,1265.176270 770.550476,1265.176270 
	C769.224609,1269.290894 767.912903,1273.361694 766.534363,1277.639648 
	C746.906311,1270.170288 727.440430,1264.993408 706.685120,1264.843506 
	C685.846741,1264.692993 666.314514,1269.145996 647.011169,1278.487305 
M525.838745,1492.547607 
	C509.846619,1477.278442 493.854523,1462.009277 477.950928,1446.824707 
	C461.723694,1457.633911 444.341583,1464.107544 425.455658,1464.772827 
	C411.388214,1465.268555 398.027191,1461.188477 387.669800,1450.936279 
	C383.563446,1446.871460 380.738251,1441.512451 377.329742,1436.742676 
	C377.724640,1436.349121 378.119537,1435.955444 378.514435,1435.561768 
	C380.322845,1435.561768 382.131287,1435.561768 383.939697,1435.561768 
	C420.435303,1435.561768 456.930939,1435.561768 493.426544,1435.561768 
	C515.257263,1435.561768 537.088562,1435.477539 558.918030,1435.642700 
	C562.658081,1435.671143 563.865845,1434.617920 563.705688,1430.855469 
	C563.415344,1424.034912 563.759094,1417.189697 563.567078,1410.362305 
	C563.130676,1394.844482 562.933411,1379.339233 558.452332,1364.204468 
	C549.582214,1334.245361 532.685669,1309.914917 507.668213,1291.389282 
	C488.294281,1277.042603 466.419006,1268.296509 442.379974,1266.152222 
	C423.655121,1264.481934 405.221619,1267.069580 387.280701,1273.005005 
	C360.064056,1282.009277 336.933655,1296.804932 320.159485,1320.428711 
	C306.079468,1340.257935 298.732941,1362.634888 295.948456,1386.692139 
	C293.911285,1404.292480 294.514618,1421.661621 299.533875,1438.713623 
	C306.697968,1463.052490 320.697510,1482.805664 339.251678,1499.995728 
	C362.604706,1521.631470 390.112701,1532.888062 421.426880,1534.815308 
	C446.179840,1536.338623 469.969879,1531.359253 492.029205,1519.822998 
	C504.808075,1513.140137 516.615173,1504.919189 525.838745,1492.547607 
M1972.443237,1534.003052 
	C1988.556763,1536.415161 2004.657227,1537.492065 2020.787109,1534.019409 
	C2046.563110,1528.469971 2069.830811,1517.630737 2089.406494,1499.923340 
	C2115.566895,1476.259644 2129.121826,1446.087280 2131.819336,1411.218018 
	C2132.885498,1397.432251 2132.269775,1383.536377 2129.100586,1369.808716 
	C2120.045654,1330.591187 2097.765381,1301.413330 2062.748047,1282.080933 
	C2035.773315,1267.188721 2006.687256,1262.671631 1976.136353,1265.905396 
	C1958.566040,1267.765015 1942.331055,1273.197754 1927.265137,1282.205933 
	C1906.155640,1294.827637 1890.556152,1312.747314 1878.360107,1333.846436 
	C1864.134766,1358.456299 1856.969360,1384.783081 1860.097412,1413.291992 
	C1862.039062,1430.987793 1867.708618,1447.686890 1876.186890,1463.344727 
	C1896.965698,1501.718262 1927.624634,1526.840332 1972.443237,1534.003052 
M1297.000122,1524.434204 
	C1297.327759,1509.988159 1298.070435,1495.537354 1297.900024,1481.097168 
	C1297.498291,1447.057129 1296.584839,1413.023438 1296.044312,1378.984497 
	C1295.866943,1367.816284 1293.297363,1357.191040 1289.317017,1346.920166 
	C1275.904663,1312.312378 1250.115356,1290.913940 1215.717651,1279.088745 
	C1197.659546,1272.880615 1179.025879,1271.027222 1160.135132,1274.072998 
	C1150.163574,1275.680786 1140.339111,1278.201172 1129.831909,1280.440796 
	C1129.582031,1277.386841 1129.093018,1273.813843 1129.050903,1270.235718 
	C1129.006958,1266.503174 1127.746338,1265.077881 1123.712891,1265.118896 
	C1103.217041,1265.328125 1082.718140,1265.210938 1062.220215,1265.226440 
	C1060.935425,1265.227417 1059.650635,1265.384766 1058.193848,1265.480591 
	C1058.193848,1353.366699 1058.193848,1440.967407 1058.193848,1529.465454 
	C1081.784180,1531.114502 1105.307251,1532.758667 1129.000122,1534.414795 
	C1129.000122,1489.742676 1128.958130,1446.248413 1129.044800,1402.754395 
	C1129.057983,1396.134033 1129.147705,1389.437866 1130.113525,1382.911865 
	C1131.943726,1370.544434 1138.082886,1360.456665 1148.148926,1352.927612 
	C1157.841675,1345.677856 1168.866089,1343.313110 1180.809204,1343.951294 
	C1193.793823,1344.644897 1204.459351,1349.795410 1213.175903,1359.396362 
	C1222.364380,1369.517212 1225.770996,1381.875610 1225.872803,1394.935181 
	C1226.214600,1438.761353 1226.013916,1482.591797 1226.020874,1526.420532 
	C1226.021118,1528.188721 1226.020996,1529.956787 1226.020996,1531.680664 
	C1249.999634,1531.680664 1273.394653,1531.680664 1297.000122,1531.680664 
	C1297.000122,1529.380493 1297.000122,1527.398315 1297.000122,1524.434204 
M186.500000,1462.000000 
	C165.756561,1462.000000 145.013123,1462.000000 123.957878,1462.000000 
	C123.957878,1361.207520 123.957878,1261.267090 123.957878,1160.987061 
	C122.038368,1161.615356 120.507637,1162.123413 118.972496,1162.617920 
	C102.333618,1167.977417 85.781807,1173.635742 69.006203,1178.526367 
	C63.267612,1180.199219 57.406544,1180.768921 53.447727,1185.984741 
	C49.620338,1191.027466 49.087566,1196.985229 49.093140,1202.832153 
	C49.116966,1227.828491 49.625729,1252.824097 49.671173,1277.820435 
	C49.821461,1360.481079 49.847656,1443.141968 49.921204,1525.802734 
	C49.922932,1527.745850 49.921421,1529.688965 49.921421,1531.738281 
	C130.512344,1531.738281 210.577728,1531.738281 290.706055,1531.738281 
	C290.706055,1508.413818 290.706055,1485.352417 290.706055,1462.000000 
	C256.108582,1462.000000 221.804291,1462.000000 186.500000,1462.000000 
M1217.626953,984.716248 
	C1223.193970,997.402527 1233.375000,1002.883972 1246.745239,1002.966492 
	C1267.388428,1003.093872 1288.042480,1003.384521 1308.674072,1002.876953 
	C1324.797852,1002.480286 1333.337280,996.582764 1339.121948,982.942322 
	C1342.462280,975.065369 1343.009888,965.751587 1350.292236,959.788086 
	C1354.343872,956.470154 1358.287231,952.953186 1362.653564,950.098206 
	C1376.321533,941.160767 1384.496582,929.337646 1384.044678,912.392273 
	C1383.800537,903.237488 1384.202026,894.065430 1383.957642,884.910645 
	C1383.460449,866.288391 1372.887329,858.270752 1357.967407,858.159546 
	C1304.317261,857.759888 1250.660522,857.764587 1197.010498,858.174438 
	C1184.275391,858.271667 1175.704956,864.606934 1173.140015,877.597900 
	C1171.613770,885.328491 1171.007935,893.334595 1170.886597,901.230652 
	C1170.567139,922.035034 1179.427856,938.392639 1196.415771,950.206970 
	C1204.844360,956.068787 1211.017700,963.370667 1213.914307,973.305725 
	C1214.963867,976.905579 1216.118652,980.474792 1217.626953,984.716248 
M957.010925,1390.688965 
	C970.196594,1353.608276 997.509888,1335.295532 1035.732300,1331.740479 
	C1035.732300,1307.698364 1035.732300,1283.950439 1035.732300,1260.225220 
	C1033.884888,1260.510010 1032.298096,1260.758667 1030.709839,1260.999023 
	C1020.660217,1262.520020 1010.454407,1263.372803 1000.588806,1265.680542 
	C967.441650,1273.434082 940.018616,1290.574097 918.406555,1317.019775 
	C908.681885,1328.919434 899.744507,1341.507080 894.360291,1355.766235 
	C885.777405,1378.496948 881.593872,1402.237183 881.906250,1426.760620 
	C882.300903,1457.739380 881.964417,1488.727173 882.044128,1519.710693 
	C882.054565,1523.757446 882.663757,1527.802734 882.983887,1531.705811 
	C906.889404,1531.705811 930.132202,1531.705811 953.768982,1531.705811 
	C953.768982,1530.466431 953.768188,1529.492798 953.769104,1528.519165 
	C953.797119,1499.701050 953.832520,1470.882935 953.840759,1442.064819 
	C953.841492,1439.576660 953.771973,1437.078613 953.550415,1434.601807 
	C952.247681,1420.039551 952.790039,1405.632568 957.010925,1390.688965 
M1674.500000,536.001038 
	C1682.493286,535.999390 1690.509766,536.385803 1698.474976,535.912231 
	C1713.326050,535.029297 1725.991943,529.234009 1727.476074,510.054657 
	C1728.376465,498.419983 1722.561279,488.287445 1711.647217,485.277893 
	C1706.776123,483.934753 1701.597656,483.142090 1696.550171,483.098358 
	C1671.572876,482.881897 1646.592529,482.947174 1621.613770,483.044403 
	C1616.833252,483.063019 1611.963257,483.198975 1607.294800,484.105927 
	C1597.780640,485.954285 1589.770996,490.534790 1586.183105,500.055786 
	C1582.566650,509.652649 1583.925903,518.890991 1590.905029,526.705994 
	C1597.145752,533.694153 1605.642212,535.830139 1614.549927,535.930786 
	C1634.197754,536.152893 1653.849731,536.000549 1674.500000,536.001038 
M1493.975098,290.451935 
	C1494.677246,291.161957 1495.369263,291.882202 1496.082886,292.580444 
	C1506.337402,302.615356 1520.023682,304.329742 1530.181030,294.544037 
	C1554.489746,271.125031 1578.058105,246.925369 1601.518311,222.647552 
	C1606.664551,217.322006 1607.269409,209.947952 1605.025513,202.591599 
	C1601.550049,191.197861 1586.540405,179.052460 1572.815796,184.306564 
	C1566.449463,186.743820 1560.495728,191.378693 1555.562134,196.241989 
	C1535.658691,215.861221 1516.215942,235.947906 1496.623291,255.881882 
	C1485.960083,266.730957 1485.021118,277.112305 1493.975098,290.451935 
M964.075073,488.315186 
	C957.332397,483.601990 949.607117,482.114624 941.645081,482.071289 
	C915.847046,481.930878 890.046875,481.903595 864.249634,482.106201 
	C859.029053,482.147186 853.609253,482.698120 848.644226,484.207642 
	C837.026794,487.739746 832.139771,494.609100 831.095276,504.944641 
	C829.728455,518.469849 834.229980,527.333923 845.169067,531.397400 
	C851.206482,533.640076 857.979797,534.744446 864.444763,534.843872 
	C889.405579,535.227661 914.376648,535.114258 939.341553,534.904480 
	C944.385681,534.862122 949.602905,534.205200 954.420227,532.762756 
	C964.749451,529.669922 972.195740,522.977539 973.775574,511.968689 
	C975.076965,502.900238 972.445557,494.630157 964.075073,488.315186 
M1510.106079,717.073425 
	C1509.184448,717.393066 1508.256104,717.694824 1507.342285,718.035095 
	C1492.962036,723.388733 1480.948120,740.834900 1492.402954,757.375122 
	C1495.690063,762.121765 1499.889160,766.300476 1504.014771,770.391846 
	C1522.927246,789.146973 1542.282593,807.467346 1560.840088,826.564575 
	C1573.197388,839.281250 1588.077271,836.686340 1598.682129,824.801819 
	C1606.655396,815.866272 1607.284912,802.410583 1599.998901,794.560608 
	C1593.094360,787.121521 1586.123413,779.737183 1578.982178,772.526489 
	C1563.522705,756.917236 1547.775879,741.589600 1532.480225,725.823181 
	C1526.414673,719.570984 1519.817871,715.873291 1510.106079,717.073425 
M970.533569,238.966370 
	C989.572144,257.360229 1008.377625,276.004456 1027.751343,294.038239 
	C1036.914673,302.567780 1050.678711,302.261658 1058.831909,294.672577 
	C1071.370483,283.001556 1073.536133,271.804077 1064.170410,259.927856 
	C1057.403076,251.346375 1049.376587,243.723114 1041.622559,235.961182 
	C1024.026855,218.347733 1007.261536,199.832901 986.441345,185.702957 
	C982.574341,183.078613 978.848755,182.639053 974.724426,183.231857 
	C967.847717,184.220322 962.242432,187.753525 958.294861,193.333939 
	C950.999756,203.646393 948.466919,214.470306 957.834473,225.319839 
	C961.738892,229.841858 965.957458,234.092560 970.533569,238.966370 
M984.302795,834.038696 
	C988.635437,831.425293 993.662048,829.522644 997.186035,826.081299 
	C1017.434692,806.307739 1037.341309,786.183533 1057.321777,766.136292 
	C1059.661377,763.788879 1061.882324,761.293335 1063.921509,758.681580 
	C1073.141235,746.873352 1071.866211,733.985596 1060.588013,724.107361 
	C1051.994995,716.581055 1039.998535,715.898743 1032.719604,721.064758 
	C1029.619629,723.264832 1026.776855,725.881897 1024.055176,728.552002 
	C1002.907959,749.299377 981.721619,770.008545 960.750122,790.932678 
	C949.136536,802.520020 948.887695,814.095825 960.139404,826.006592 
	C966.303528,832.531799 973.779602,836.960022 984.302795,834.038696 
M1304.997192,100.518250 
	C1304.666992,94.706253 1304.157837,88.897804 1304.042725,83.081558 
	C1303.783325,69.979858 1292.675781,59.279182 1278.758545,59.682007 
	C1264.872681,60.083923 1254.041138,70.634377 1254.017578,84.063454 
	C1253.962280,115.692848 1253.968628,147.322464 1254.015503,178.951874 
	C1254.033569,191.145920 1263.104492,200.985672 1275.928345,202.952942 
	C1287.174072,204.678116 1299.720215,197.405670 1302.776978,186.477829 
	C1304.390869,180.708435 1304.840332,174.471344 1304.904419,168.435745 
	C1305.141113,146.130280 1304.998047,123.820801 1304.997192,100.518250 
z"/>
<path fill="#E8A185" opacity="1.000000" stroke="none" 
	d="
M1150.774414,773.263550 
	C1145.548462,745.429871 1135.947632,719.808899 1119.082031,697.361938 
	C1110.939575,686.525024 1101.981689,676.297913 1093.330200,665.846741 
	C1069.907593,637.551697 1053.478638,605.614197 1044.112671,570.150269 
	C1039.947632,554.379333 1037.675903,538.280396 1036.885498,521.885803 
	C1034.129883,464.732391 1050.190186,413.438995 1084.605713,368.018951 
	C1116.500610,325.925415 1157.488770,296.275024 1208.252930,280.749878 
	C1224.647827,275.735840 1241.387451,272.463745 1258.597290,271.952728 
	C1266.541870,271.716888 1274.492554,270.877106 1282.421875,271.071289 
	C1333.480225,272.321625 1379.912231,287.706146 1421.208252,317.808380 
	C1459.690674,345.859741 1487.577515,382.188904 1504.343262,426.867188 
	C1511.399536,445.671509 1516.388550,465.021576 1517.946533,485.090576 
	C1518.971436,498.294647 1520.340454,511.590393 1519.806396,524.774292 
	C1518.376221,560.086853 1509.143433,593.416199 1492.037354,624.490295 
	C1480.413452,645.605652 1465.175171,663.953735 1449.542114,682.143127 
	C1427.992310,707.216736 1413.110596,735.814087 1406.991821,768.615295 
	C1401.688965,797.043091 1386.212646,816.159302 1357.098877,822.521423 
	C1353.089478,823.397583 1348.917358,823.929688 1344.819214,823.938904 
	C1300.659790,824.038391 1256.499756,824.096008 1212.340576,823.946899 
	C1197.829346,823.897888 1184.556885,819.677917 1172.968750,810.601562 
	C1160.837524,801.099976 1154.238892,788.377502 1150.774414,773.263550 
M1387.034546,357.474609 
	C1357.531250,337.034607 1324.830566,325.570770 1289.009644,324.130463 
	C1247.495483,322.461243 1209.098145,332.495392 1174.666626,356.548279 
	C1124.650024,391.488190 1095.457153,438.676544 1090.135010,499.802856 
	C1088.836304,514.718811 1090.515869,529.683228 1093.418091,544.403442 
	C1100.935303,582.530823 1118.802246,615.371948 1144.555054,644.187012 
	C1167.538696,669.903687 1184.860718,698.914612 1195.160522,731.958252 
	C1198.064575,741.275024 1200.793701,750.650146 1203.903931,759.897461 
	C1206.083130,766.376770 1210.466675,770.716309 1217.677124,771.087585 
	C1225.810425,771.506226 1233.969482,772.058289 1242.095459,771.816223 
	C1250.216309,771.574280 1253.652710,767.569580 1253.968262,759.437744 
	C1254.052124,757.274414 1254.011230,755.105225 1253.993652,752.939026 
	C1253.665405,712.651855 1253.096191,672.364380 1253.161011,632.077820 
	C1253.177734,621.639038 1249.732910,613.348267 1242.712891,606.140015 
	C1236.784180,600.052063 1230.842041,593.976013 1224.829224,587.971375 
	C1215.868164,579.022400 1206.564331,570.399475 1197.902588,561.171875 
	C1183.759888,546.105103 1190.432007,523.096680 1210.153931,518.525085 
	C1219.419434,516.377319 1227.262939,520.104370 1233.741699,526.345093 
	C1242.257568,534.547791 1250.369751,543.173035 1258.567139,551.701660 
	C1265.093384,558.491638 1271.486938,565.409180 1277.885254,572.212524 
	C1292.049316,557.494080 1305.668579,543.084717 1319.628662,529.013489 
	C1323.187988,525.425781 1327.512695,522.270203 1332.039307,520.039734 
	C1340.615234,515.813904 1348.891357,517.428650 1356.138428,523.569031 
	C1363.772949,530.037842 1368.563843,538.132690 1364.888794,548.138306 
	C1362.623047,554.307129 1358.821045,560.350098 1354.343262,565.184875 
	C1341.442871,579.113464 1327.764038,592.317810 1314.562134,605.971924 
	C1307.458130,613.319214 1304.050293,622.403137 1304.033325,632.573181 
	C1303.959717,676.733459 1304.007446,720.893921 1304.010986,765.054321 
	C1304.011108,766.839294 1304.010986,768.624207 1304.010986,771.000671 
	C1315.802734,771.000671 1327.085083,770.994934 1338.367432,771.002319 
	C1348.759521,771.009094 1353.569580,767.172607 1355.970215,757.132751 
	C1358.125610,748.118591 1359.983887,739.005127 1362.697266,730.157593 
	C1373.597412,694.616821 1393.794678,664.645508 1418.897461,637.703552 
	C1449.440796,604.922424 1465.576294,565.907776 1467.715698,521.410156 
	C1468.402832,507.117859 1467.283936,492.466003 1464.856445,478.345642 
	C1456.113770,427.489990 1429.409546,387.763824 1387.034546,357.474609 
z"/>
<path fill="#EBE4BE" opacity="1.000000" stroke="none" 
	d="
M2298.004639,1455.038330 
	C2291.328613,1476.911255 2284.683105,1498.380737 2278.014404,1519.843018 
	C2275.226074,1528.816772 2270.392334,1533.594238 2259.538330,1533.140869 
	C2245.731934,1532.564331 2231.881592,1532.907837 2218.053223,1533.074463 
	C2215.084961,1533.110107 2213.903564,1532.207397 2212.923096,1529.366089 
	C2184.153564,1446.013306 2155.263184,1362.701904 2126.407715,1279.378662 
	C2125.180664,1275.835693 2124.102051,1272.241211 2122.836182,1268.302490 
	C2147.891113,1268.302490 2172.617676,1268.302490 2197.656250,1268.302490 
	C2212.858887,1313.590210 2228.127686,1359.075684 2243.812256,1405.800049 
	C2258.256592,1359.219238 2272.369629,1313.706177 2286.542725,1267.999756 
	C2304.822754,1267.999756 2322.974121,1267.933472 2341.122559,1268.138306 
	C2342.433594,1268.153076 2344.478271,1269.899536 2344.911621,1271.248901 
	C2356.375244,1306.944092 2367.668945,1342.694092 2378.997559,1378.432617 
	C2381.587646,1386.602783 2384.201172,1394.765503 2386.803955,1402.931641 
	C2387.293945,1402.983276 2387.783936,1403.034912 2388.273926,1403.086426 
	C2394.843262,1383.872803 2401.555176,1364.706421 2407.944336,1345.433105 
	C2415.137207,1323.734131 2421.992188,1301.923340 2429.087402,1280.191650 
	C2432.844482,1268.684814 2436.354004,1266.376587 2450.466309,1267.064209 
	C2454.066650,1267.239624 2457.652344,1267.932007 2461.247803,1267.956055 
	C2476.572266,1268.058594 2491.897949,1267.999634 2508.265625,1267.999634 
	C2504.050049,1280.907959 2500.145752,1293.412476 2495.892334,1305.797119 
	C2471.641357,1376.408325 2447.327881,1446.998047 2422.943115,1517.563110 
	C2421.684570,1521.205688 2420.188965,1525.107544 2417.684082,1527.875854 
	C2415.472656,1530.319824 2411.784912,1532.547485 2408.593750,1532.785156 
	C2396.861084,1533.659668 2385.065186,1533.813110 2373.289795,1533.959595 
	C2360.756104,1534.115601 2353.768799,1529.142090 2350.062256,1516.989380 
	C2344.545410,1498.899414 2339.560059,1480.647949 2334.103271,1462.539062 
	C2328.088379,1442.577881 2321.796631,1422.700195 2314.682373,1402.543823 
	C2309.130127,1419.906494 2303.578125,1437.269287 2298.004639,1455.038330 
z"/>
<path fill="#EBCCA9" opacity="1.000000" stroke="none" 
	d="
M1717.989380,1230.831787 
	C1701.330688,1230.887817 1684.671997,1230.981445 1668.013306,1230.992310 
	C1630.688477,1231.016724 1593.363770,1231.000000 1556.038940,1231.000000 
	C1554.244629,1231.000000 1552.450317,1231.000000 1550.330322,1231.000000 
	C1550.330322,1259.723755 1550.330322,1287.983765 1550.330322,1316.825928 
	C1606.113037,1316.825928 1662.139404,1316.825928 1718.424805,1316.825928 
	C1718.424805,1340.804199 1718.424805,1364.200806 1718.424805,1388.001221 
	C1662.253540,1388.001221 1606.345825,1388.001221 1550.133789,1388.001221 
	C1550.133789,1436.004028 1550.133789,1483.604980 1550.133789,1531.599854 
	C1524.791260,1531.599854 1499.750610,1531.599854 1474.055664,1531.599854 
	C1474.055664,1409.061523 1474.055664,1286.493164 1474.290039,1163.355225 
	C1474.727783,1162.612915 1474.887207,1162.406494 1475.002808,1162.166260 
	C1476.163452,1162.110840 1477.323975,1162.006958 1478.484619,1162.006958 
	C1558.012695,1162.005005 1637.540771,1162.011597 1717.624023,1162.266602 
	C1718.325439,1162.745361 1718.524658,1162.910400 1718.777100,1163.011108 
	C1718.819214,1185.029175 1718.861328,1207.047241 1718.670166,1229.628296 
	C1718.239014,1230.370728 1718.089844,1230.584229 1717.989380,1230.831787 
z"/>
<path fill="#EEB596" opacity="1.000000" stroke="none" 
	d="
M647.325562,1278.269043 
	C666.314514,1269.145996 685.846741,1264.692993 706.685120,1264.843506 
	C727.440430,1264.993408 746.906311,1270.170288 766.534363,1277.639648 
	C767.912903,1273.361694 769.224609,1269.290894 770.550476,1265.176270 
	C793.588806,1265.176270 816.537781,1265.176270 839.999390,1265.176270 
	C839.999390,1267.121826 839.999451,1268.899536 839.999451,1270.677246 
	C839.999451,1355.340942 839.977417,1440.004639 840.068298,1524.668213 
	C840.072510,1528.636230 839.625183,1530.843384 834.868225,1531.487549 
	C822.257202,1533.195068 809.727783,1535.293091 796.966980,1533.123291 
	C790.664185,1532.051636 784.335205,1531.127319 778.048584,1529.970459 
	C776.317505,1529.651855 774.248535,1529.178833 773.101624,1528.018311 
	C767.942078,1522.799438 762.845215,1524.938721 757.238525,1527.189697 
	C740.438904,1533.934937 722.845886,1537.531128 704.788635,1536.864990 
	C672.480652,1535.673340 643.499634,1525.061768 618.569519,1504.093628 
	C593.510986,1483.017578 578.860046,1455.762573 573.250671,1423.998047 
	C566.244385,1384.322876 575.598694,1348.130493 600.428589,1316.309814 
	C612.993591,1300.207153 628.713501,1287.683594 647.325562,1278.269043 
M711.044983,1336.616455 
	C706.335571,1336.771606 701.526917,1336.362793 696.932312,1337.170776 
	C659.276245,1343.792480 633.631104,1381.920288 644.971436,1418.127808 
	C653.525879,1445.440430 678.015320,1465.579102 706.291931,1465.838135 
	C716.553284,1465.932251 726.349060,1462.557007 735.628845,1457.913086 
	C764.135498,1443.646973 773.630249,1417.442749 770.681641,1390.156860 
	C768.970276,1374.320923 760.049377,1361.697754 747.881531,1351.606934 
	C737.473450,1342.975464 726.139893,1336.302002 711.044983,1336.616455 
z"/>
<path fill="#EFAE90" opacity="1.000000" stroke="none" 
	d="
M525.611206,1492.812500 
	C516.615173,1504.919189 504.808075,1513.140137 492.029205,1519.822998 
	C469.969879,1531.359253 446.179840,1536.338623 421.426880,1534.815308 
	C390.112701,1532.888062 362.604706,1521.631470 339.251678,1499.995728 
	C320.697510,1482.805664 306.697968,1463.052490 299.533875,1438.713623 
	C294.514618,1421.661621 293.911285,1404.292480 295.948456,1386.692139 
	C298.732941,1362.634888 306.079468,1340.257935 320.159485,1320.428711 
	C336.933655,1296.804932 360.064056,1282.009277 387.280701,1273.005005 
	C405.221619,1267.069580 423.655121,1264.481934 442.379974,1266.152222 
	C466.419006,1268.296509 488.294281,1277.042603 507.668213,1291.389282 
	C532.685669,1309.914917 549.582214,1334.245361 558.452332,1364.204468 
	C562.933411,1379.339233 563.130676,1394.844482 563.567078,1410.362305 
	C563.759094,1417.189697 563.415344,1424.034912 563.705688,1430.855469 
	C563.865845,1434.617920 562.658081,1435.671143 558.918030,1435.642700 
	C537.088562,1435.477539 515.257263,1435.561768 493.426544,1435.561768 
	C456.930939,1435.561768 420.435303,1435.561768 383.939697,1435.561768 
	C382.131287,1435.561768 380.322845,1435.561768 378.514435,1435.561768 
	C378.119537,1435.955444 377.724640,1436.349121 377.329742,1436.742676 
	C380.738251,1441.512451 383.563446,1446.871460 387.669800,1450.936279 
	C398.027191,1461.188477 411.388214,1465.268555 425.455658,1464.772827 
	C444.341583,1464.107544 461.723694,1457.633911 477.950928,1446.824707 
	C493.854523,1462.009277 509.846619,1477.278442 525.611206,1492.812500 
M413.350769,1336.649536 
	C394.467773,1339.567017 379.365417,1354.975830 378.302246,1364.872925 
	C413.141510,1364.872925 447.983643,1364.872925 482.825775,1364.872925 
	C483.129272,1364.446899 483.432770,1364.020874 483.736267,1363.594849 
	C478.847595,1358.812500 474.479950,1353.296265 468.972321,1349.385864 
	C452.583160,1337.750122 434.016815,1334.099121 413.350769,1336.649536 
z"/>
<path fill="#ECDEB8" opacity="1.000000" stroke="none" 
	d="
M1972.000977,1534.001709 
	C1927.624634,1526.840332 1896.965698,1501.718262 1876.186890,1463.344727 
	C1867.708618,1447.686890 1862.039062,1430.987793 1860.097412,1413.291992 
	C1856.969360,1384.783081 1864.134766,1358.456299 1878.360107,1333.846436 
	C1890.556152,1312.747314 1906.155640,1294.827637 1927.265137,1282.205933 
	C1942.331055,1273.197754 1958.566040,1267.765015 1976.136353,1265.905396 
	C2006.687256,1262.671631 2035.773315,1267.188721 2062.748047,1282.080933 
	C2097.765381,1301.413330 2120.045654,1330.591187 2129.100586,1369.808716 
	C2132.269775,1383.536377 2132.885498,1397.432251 2131.819336,1411.218018 
	C2129.121826,1446.087280 2115.566895,1476.259644 2089.406494,1499.923340 
	C2069.830811,1517.630737 2046.563110,1528.469971 2020.787109,1534.019409 
	C2004.657227,1537.492065 1988.556763,1536.415161 1972.000977,1534.001709 
M1937.343140,1373.979614 
	C1931.041016,1388.664673 1930.275024,1403.584839 1934.965576,1418.909302 
	C1944.606567,1450.408203 1975.119019,1470.922485 2010.014282,1463.826416 
	C2048.188721,1456.063477 2066.096924,1414.523804 2058.058594,1384.916992 
	C2049.155029,1352.122559 2018.972534,1331.372070 1987.227051,1337.153564 
	C1965.215454,1341.162354 1948.022461,1352.770752 1937.343140,1373.979614 
z"/>
<path fill="#EDC6A4" opacity="1.000000" stroke="none" 
	d="
M1297.000122,1524.925171 
	C1297.000122,1527.398315 1297.000122,1529.380493 1297.000122,1531.680664 
	C1273.394653,1531.680664 1249.999634,1531.680664 1226.020996,1531.680664 
	C1226.020996,1529.956787 1226.021118,1528.188721 1226.020874,1526.420532 
	C1226.013916,1482.591797 1226.214600,1438.761353 1225.872803,1394.935181 
	C1225.770996,1381.875610 1222.364380,1369.517212 1213.175903,1359.396362 
	C1204.459351,1349.795410 1193.793823,1344.644897 1180.809204,1343.951294 
	C1168.866089,1343.313110 1157.841675,1345.677856 1148.148926,1352.927612 
	C1138.082886,1360.456665 1131.943726,1370.544434 1130.113525,1382.911865 
	C1129.147705,1389.437866 1129.057983,1396.134033 1129.044800,1402.754395 
	C1128.958130,1446.248413 1129.000122,1489.742676 1129.000122,1534.414795 
	C1105.307251,1532.758667 1081.784180,1531.114502 1058.193848,1529.465454 
	C1058.193848,1440.967407 1058.193848,1353.366699 1058.193848,1265.480591 
	C1059.650635,1265.384766 1060.935425,1265.227417 1062.220215,1265.226440 
	C1082.718140,1265.210938 1103.217041,1265.328125 1123.712891,1265.118896 
	C1127.746338,1265.077881 1129.006958,1266.503174 1129.050903,1270.235718 
	C1129.093018,1273.813843 1129.582031,1277.386841 1129.831909,1280.440796 
	C1140.339111,1278.201172 1150.163574,1275.680786 1160.135132,1274.072998 
	C1179.025879,1271.027222 1197.659546,1272.880615 1215.717651,1279.088745 
	C1250.115356,1290.913940 1275.904663,1312.312378 1289.317017,1346.920166 
	C1293.297363,1357.191040 1295.866943,1367.816284 1296.044312,1378.984497 
	C1296.584839,1413.023438 1297.498291,1447.057129 1297.900024,1481.097168 
	C1298.070435,1495.537354 1297.327759,1509.988159 1297.000122,1524.925171 
z"/>
<path fill="#EDA487" opacity="1.000000" stroke="none" 
	d="
M187.000000,1462.000000 
	C221.804291,1462.000000 256.108582,1462.000000 290.706055,1462.000000 
	C290.706055,1485.352417 290.706055,1508.413818 290.706055,1531.738281 
	C210.577728,1531.738281 130.512344,1531.738281 49.921421,1531.738281 
	C49.921421,1529.688965 49.922932,1527.745850 49.921204,1525.802734 
	C49.847656,1443.141968 49.821461,1360.481079 49.671173,1277.820435 
	C49.625729,1252.824097 49.116966,1227.828491 49.093140,1202.832153 
	C49.087566,1196.985229 49.620338,1191.027466 53.447727,1185.984741 
	C57.406544,1180.768921 63.267612,1180.199219 69.006203,1178.526367 
	C85.781807,1173.635742 102.333618,1167.977417 118.972496,1162.617920 
	C120.507637,1162.123413 122.038368,1161.615356 123.957878,1160.987061 
	C123.957878,1261.267090 123.957878,1361.207520 123.957878,1462.000000 
	C145.013123,1462.000000 165.756561,1462.000000 187.000000,1462.000000 
z"/>
<path fill="#EED7B3" opacity="1.000000" stroke="none" 
	d="
M1825.769409,1150.024902 
	C1825.814331,1151.187500 1825.898560,1152.350220 1825.898560,1153.512817 
	C1825.899536,1279.026001 1825.893921,1404.539062 1825.651855,1530.610596 
	C1825.215332,1531.355957 1825.069702,1531.578369 1824.978027,1531.836060 
	C1801.536987,1531.836060 1778.095825,1531.836060 1754.136597,1531.836060 
	C1754.136597,1530.002197 1754.136963,1528.390503 1754.136353,1526.778809 
	C1754.090942,1413.700439 1754.044678,1300.621948 1754.001221,1187.543579 
	C1753.996582,1175.390991 1757.701050,1170.721436 1769.476807,1166.963867 
	C1787.766479,1161.127930 1805.976929,1155.043335 1824.689697,1149.295044 
	C1825.298706,1149.769897 1825.502319,1149.936157 1825.769409,1150.024902 
z"/>
<path fill="#EBA286" opacity="1.000000" stroke="none" 
	d="
M1217.426270,984.387085 
	C1216.118652,980.474792 1214.963867,976.905579 1213.914307,973.305725 
	C1211.017700,963.370667 1204.844360,956.068787 1196.415771,950.206970 
	C1179.427856,938.392639 1170.567139,922.035034 1170.886597,901.230652 
	C1171.007935,893.334595 1171.613770,885.328491 1173.140015,877.597900 
	C1175.704956,864.606934 1184.275391,858.271667 1197.010498,858.174438 
	C1250.660522,857.764587 1304.317261,857.759888 1357.967407,858.159546 
	C1372.887329,858.270752 1383.460449,866.288391 1383.957642,884.910645 
	C1384.202026,894.065430 1383.800537,903.237488 1384.044678,912.392273 
	C1384.496582,929.337646 1376.321533,941.160767 1362.653564,950.098206 
	C1358.287231,952.953186 1354.343872,956.470154 1350.292236,959.788086 
	C1343.009888,965.751587 1342.462280,975.065369 1339.121948,982.942322 
	C1333.337280,996.582764 1324.797852,1002.480286 1308.674072,1002.876953 
	C1288.042480,1003.384521 1267.388428,1003.093872 1246.745239,1002.966492 
	C1233.375000,1002.883972 1223.193970,997.402527 1217.426270,984.387085 
z"/>
<path fill="#EEBD9C" opacity="1.000000" stroke="none" 
	d="
M956.992981,1391.099609 
	C952.790039,1405.632568 952.247681,1420.039551 953.550415,1434.601807 
	C953.771973,1437.078613 953.841492,1439.576660 953.840759,1442.064819 
	C953.832520,1470.882935 953.797119,1499.701050 953.769104,1528.519165 
	C953.768188,1529.492798 953.768982,1530.466431 953.768982,1531.705811 
	C930.132202,1531.705811 906.889404,1531.705811 882.983887,1531.705811 
	C882.663757,1527.802734 882.054565,1523.757446 882.044128,1519.710693 
	C881.964417,1488.727173 882.300903,1457.739380 881.906250,1426.760620 
	C881.593872,1402.237183 885.777405,1378.496948 894.360291,1355.766235 
	C899.744507,1341.507080 908.681885,1328.919434 918.406555,1317.019775 
	C940.018616,1290.574097 967.441650,1273.434082 1000.588806,1265.680542 
	C1010.454407,1263.372803 1020.660217,1262.520020 1030.709839,1260.999023 
	C1032.298096,1260.758667 1033.884888,1260.510010 1035.732300,1260.225220 
	C1035.732300,1283.950439 1035.732300,1307.698364 1035.732300,1331.740479 
	C997.509888,1335.295532 970.196594,1353.608276 956.992981,1391.099609 
z"/>
<path fill="#E39E82" opacity="1.000000" stroke="none" 
	d="
M1674.000000,536.001038 
	C1653.849731,536.000549 1634.197754,536.152893 1614.549927,535.930786 
	C1605.642212,535.830139 1597.145752,533.694153 1590.905029,526.705994 
	C1583.925903,518.890991 1582.566650,509.652649 1586.183105,500.055786 
	C1589.770996,490.534790 1597.780640,485.954285 1607.294800,484.105927 
	C1611.963257,483.198975 1616.833252,483.063019 1621.613770,483.044403 
	C1646.592529,482.947174 1671.572876,482.881897 1696.550171,483.098358 
	C1701.597656,483.142090 1706.776123,483.934753 1711.647217,485.277893 
	C1722.561279,488.287445 1728.376465,498.419983 1727.476074,510.054657 
	C1725.991943,529.234009 1713.326050,535.029297 1698.474976,535.912231 
	C1690.509766,536.385803 1682.493286,535.999390 1674.000000,536.001038 
z"/>
<path fill="#E49E83" opacity="1.000000" stroke="none" 
	d="
M1493.725098,290.187256 
	C1485.021118,277.112305 1485.960083,266.730957 1496.623291,255.881882 
	C1516.215942,235.947906 1535.658691,215.861221 1555.562134,196.241989 
	C1560.495728,191.378693 1566.449463,186.743820 1572.815796,184.306564 
	C1586.540405,179.052460 1601.550049,191.197861 1605.025513,202.591599 
	C1607.269409,209.947952 1606.664551,217.322006 1601.518311,222.647552 
	C1578.058105,246.925369 1554.489746,271.125031 1530.181030,294.544037 
	C1520.023682,304.329742 1506.337402,302.615356 1496.082886,292.580444 
	C1495.369263,291.882202 1494.677246,291.161957 1493.725098,290.187256 
z"/>
<path fill="#E49E82" opacity="1.000000" stroke="none" 
	d="
M964.369629,488.536224 
	C972.445557,494.630157 975.076965,502.900238 973.775574,511.968689 
	C972.195740,522.977539 964.749451,529.669922 954.420227,532.762756 
	C949.602905,534.205200 944.385681,534.862122 939.341553,534.904480 
	C914.376648,535.114258 889.405579,535.227661 864.444763,534.843872 
	C857.979797,534.744446 851.206482,533.640076 845.169067,531.397400 
	C834.229980,527.333923 829.728455,518.469849 831.095276,504.944641 
	C832.139771,494.609100 837.026794,487.739746 848.644226,484.207642 
	C853.609253,482.698120 859.029053,482.147186 864.249634,482.106201 
	C890.046875,481.903595 915.847046,481.930878 941.645081,482.071289 
	C949.607117,482.114624 957.332397,483.601990 964.369629,488.536224 
z"/>
<path fill="#E39D82" opacity="1.000000" stroke="none" 
	d="
M1510.540527,717.040710 
	C1519.817871,715.873291 1526.414673,719.570984 1532.480225,725.823181 
	C1547.775879,741.589600 1563.522705,756.917236 1578.982178,772.526489 
	C1586.123413,779.737183 1593.094360,787.121521 1599.998901,794.560608 
	C1607.284912,802.410583 1606.655396,815.866272 1598.682129,824.801819 
	C1588.077271,836.686340 1573.197388,839.281250 1560.840088,826.564575 
	C1542.282593,807.467346 1522.927246,789.146973 1504.014771,770.391846 
	C1499.889160,766.300476 1495.690063,762.121765 1492.402954,757.375122 
	C1480.948120,740.834900 1492.962036,723.388733 1507.342285,718.035095 
	C1508.256104,717.694824 1509.184448,717.393066 1510.540527,717.040710 
z"/>
<path fill="#E69F84" opacity="1.000000" stroke="none" 
	d="
M970.283386,238.716492 
	C965.957458,234.092560 961.738892,229.841858 957.834473,225.319839 
	C948.466919,214.470306 950.999756,203.646393 958.294861,193.333939 
	C962.242432,187.753525 967.847717,184.220322 974.724426,183.231857 
	C978.848755,182.639053 982.574341,183.078613 986.441345,185.702957 
	C1007.261536,199.832901 1024.026855,218.347733 1041.622559,235.961182 
	C1049.376587,243.723114 1057.403076,251.346375 1064.170410,259.927856 
	C1073.536133,271.804077 1071.370483,283.001556 1058.831909,294.672577 
	C1050.678711,302.261658 1036.914673,302.567780 1027.751343,294.038239 
	C1008.377625,276.004456 989.572144,257.360229 970.283386,238.716492 
z"/>
<path fill="#E59E83" opacity="1.000000" stroke="none" 
	d="
M983.891846,834.118164 
	C973.779602,836.960022 966.303528,832.531799 960.139404,826.006592 
	C948.887695,814.095825 949.136536,802.520020 960.750122,790.932678 
	C981.721619,770.008545 1002.907959,749.299377 1024.055176,728.552002 
	C1026.776855,725.881897 1029.619629,723.264832 1032.719604,721.064758 
	C1039.998535,715.898743 1051.994995,716.581055 1060.588013,724.107361 
	C1071.866211,733.985596 1073.141235,746.873352 1063.921509,758.681580 
	C1061.882324,761.293335 1059.661377,763.788879 1057.321777,766.136292 
	C1037.341309,786.183533 1017.434692,806.307739 997.186035,826.081299 
	C993.662048,829.522644 988.635437,831.425293 983.891846,834.118164 
z"/>
<path fill="#E9A185" opacity="1.000000" stroke="none" 
	d="
M1304.997437,101.015541 
	C1304.998047,123.820801 1305.141113,146.130280 1304.904419,168.435745 
	C1304.840332,174.471344 1304.390869,180.708435 1302.776978,186.477829 
	C1299.720215,197.405670 1287.174072,204.678116 1275.928345,202.952942 
	C1263.104492,200.985672 1254.033569,191.145920 1254.015503,178.951874 
	C1253.968628,147.322464 1253.962280,115.692848 1254.017578,84.063454 
	C1254.041138,70.634377 1264.872681,60.083923 1278.758545,59.682007 
	C1292.675781,59.279182 1303.783325,69.979858 1304.042725,83.081558 
	C1304.157837,88.897804 1304.666992,94.706253 1304.997437,101.015541 
z"/>
<path fill="#C8B496" opacity="1.000000" stroke="none" 
	d="
M1825.249512,1531.869995 
	C1825.069702,1531.578369 1825.215332,1531.355957 1825.592041,1531.074463 
	C1825.686523,1531.288086 1825.603760,1531.595947 1825.249512,1531.869995 
z"/>
<path fill="#C8B496" opacity="1.000000" stroke="none" 
	d="
M1718.255371,1230.865845 
	C1718.089844,1230.584229 1718.239014,1230.370728 1718.607056,1230.092773 
	C1718.691895,1230.296143 1718.606567,1230.598145 1718.255371,1230.865845 
z"/>
<path fill="#C8B496" opacity="1.000000" stroke="none" 
	d="
M1718.838379,1162.750000 
	C1718.524658,1162.910400 1718.325439,1162.745361 1718.086914,1162.342407 
	C1718.296143,1162.275513 1718.598022,1162.382202 1718.838379,1162.750000 
z"/>
<path fill="#DABE9C" opacity="1.000000" stroke="none" 
	d="
M1474.737427,1162.127441 
	C1474.887207,1162.406494 1474.727783,1162.612915 1474.358398,1162.890625 
	C1474.285522,1162.693481 1474.378784,1162.390991 1474.737427,1162.127441 
z"/>
<path fill="#C8B496" opacity="1.000000" stroke="none" 
	d="
M1825.837524,1149.759766 
	C1825.502319,1149.936157 1825.298706,1149.769897 1825.070801,1149.345215 
	C1825.290527,1149.274536 1825.598145,1149.384521 1825.837524,1149.759766 
z"/>
<path fill="#040302" opacity="1.000000" stroke="none" 
	d="
M1387.318604,357.696960 
	C1429.409546,387.763824 1456.113770,427.489990 1464.856445,478.345642 
	C1467.283936,492.466003 1468.402832,507.117859 1467.715698,521.410156 
	C1465.576294,565.907776 1449.440796,604.922424 1418.897461,637.703552 
	C1393.794678,664.645508 1373.597412,694.616821 1362.697266,730.157593 
	C1359.983887,739.005127 1358.125610,748.118591 1355.970215,757.132751 
	C1353.569580,767.172607 1348.759521,771.009094 1338.367432,771.002319 
	C1327.085083,770.994934 1315.802734,771.000671 1304.010986,771.000671 
	C1304.010986,768.624207 1304.011108,766.839294 1304.010986,765.054321 
	C1304.007446,720.893921 1303.959717,676.733459 1304.033325,632.573181 
	C1304.050293,622.403137 1307.458130,613.319214 1314.562134,605.971924 
	C1327.764038,592.317810 1341.442871,579.113464 1354.343262,565.184875 
	C1358.821045,560.350098 1362.623047,554.307129 1364.888794,548.138306 
	C1368.563843,538.132690 1363.772949,530.037842 1356.138428,523.569031 
	C1348.891357,517.428650 1340.615234,515.813904 1332.039307,520.039734 
	C1327.512695,522.270203 1323.187988,525.425781 1319.628662,529.013489 
	C1305.668579,543.084717 1292.049316,557.494080 1277.885254,572.212524 
	C1271.486938,565.409180 1265.093384,558.491638 1258.567139,551.701660 
	C1250.369751,543.173035 1242.257568,534.547791 1233.741699,526.345093 
	C1227.262939,520.104370 1219.419434,516.377319 1210.153931,518.525085 
	C1190.432007,523.096680 1183.759888,546.105103 1197.902588,561.171875 
	C1206.564331,570.399475 1215.868164,579.022400 1224.829224,587.971375 
	C1230.842041,593.976013 1236.784180,600.052063 1242.712891,606.140015 
	C1249.732910,613.348267 1253.177734,621.639038 1253.161011,632.077820 
	C1253.096191,672.364380 1253.665405,712.651855 1253.993652,752.939026 
	C1254.011230,755.105225 1254.052124,757.274414 1253.968262,759.437744 
	C1253.652710,767.569580 1250.216309,771.574280 1242.095459,771.816223 
	C1233.969482,772.058289 1225.810425,771.506226 1217.677124,771.087585 
	C1210.466675,770.716309 1206.083130,766.376770 1203.903931,759.897461 
	C1200.793701,750.650146 1198.064575,741.275024 1195.160522,731.958252 
	C1184.860718,698.914612 1167.538696,669.903687 1144.555054,644.187012 
	C1118.802246,615.371948 1100.935303,582.530823 1093.418091,544.403442 
	C1090.515869,529.683228 1088.836304,514.718811 1090.135010,499.802856 
	C1095.457153,438.676544 1124.650024,391.488190 1174.666626,356.548279 
	C1209.098145,332.495392 1247.495483,322.461243 1289.009644,324.130463 
	C1324.830566,325.570770 1357.531250,337.034607 1387.318604,357.696960 
z"/>
<path fill="#040202" opacity="1.000000" stroke="none" 
	d="
M711.468262,1336.784912 
	C726.139893,1336.302002 737.473450,1342.975464 747.881531,1351.606934 
	C760.049377,1361.697754 768.970276,1374.320923 770.681641,1390.156860 
	C773.630249,1417.442749 764.135498,1443.646973 735.628845,1457.913086 
	C726.349060,1462.557007 716.553284,1465.932251 706.291931,1465.838135 
	C678.015320,1465.579102 653.525879,1445.440430 644.971436,1418.127808 
	C633.631104,1381.920288 659.276245,1343.792480 696.932312,1337.170776 
	C701.526917,1336.362793 706.335571,1336.771606 711.468262,1336.784912 
z"/>
<path fill="#0C0907" opacity="1.000000" stroke="none" 
	d="
M413.766296,1336.495361 
	C434.016815,1334.099121 452.583160,1337.750122 468.972321,1349.385864 
	C474.479950,1353.296265 478.847595,1358.812500 483.736267,1363.594849 
	C483.432770,1364.020874 483.129272,1364.446899 482.825775,1364.872925 
	C447.983643,1364.872925 413.141510,1364.872925 378.302246,1364.872925 
	C379.365417,1354.975830 394.467773,1339.567017 413.766296,1336.495361 
z"/>
<path fill="#040402" opacity="1.000000" stroke="none" 
	d="
M1937.553223,1373.662598 
	C1948.022461,1352.770752 1965.215454,1341.162354 1987.227051,1337.153564 
	C2018.972534,1331.372070 2049.155029,1352.122559 2058.058594,1384.916992 
	C2066.096924,1414.523804 2048.188721,1456.063477 2010.014282,1463.826416 
	C1975.119019,1470.922485 1944.606567,1450.408203 1934.965576,1418.909302 
	C1930.275024,1403.584839 1931.041016,1388.664673 1937.553223,1373.662598 
z"/>
</svg>