<svg version="1.1" id="Layer_1" xmlns="http://www.w3.org/2000/svg" xmlns:xlink="http://www.w3.org/1999/xlink" x="0px" y="0px"
	 width="100%" viewBox="0 0 1250 1094" enable-background="new 0 0 1250 1094" xml:space="preserve">
<path fill="#FFFFFF" opacity="1.000000" stroke="none" 
	d="
M847.000000,1095.000000 
	C564.666687,1095.000000 282.833344,1095.000000 1.000000,1095.000000 
	C1.000000,730.333313 1.000000,365.666656 1.000000,1.000000 
	C417.666656,1.000000 834.333313,1.000000 1251.000000,1.000000 
	C1251.000000,365.666656 1251.000000,730.333313 1251.000000,1095.000000 
	C1116.500000,1095.000000 982.000000,1095.000000 847.000000,1095.000000 
M656.986877,85.291656 
	C656.154480,68.559166 644.444397,56.824505 626.236633,60.323235 
	C614.332092,62.610764 607.504761,72.128670 607.192017,86.220024 
	C606.552612,115.027657 606.624329,143.867157 607.218567,172.676727 
	C607.408020,181.861618 608.576660,191.461761 617.296387,197.926590 
	C625.202576,203.788330 633.420959,204.439133 642.115601,200.800629 
	C650.114258,197.453384 655.678040,191.530029 656.851929,182.771362 
	C657.772095,175.904816 657.542786,168.884186 657.943909,161.013809 
	C657.932983,137.978348 657.944641,114.942810 657.869690,91.907570 
	C657.863464,89.991669 657.272034,88.077675 656.986877,85.291656 
M428.166443,641.309448 
	C439.749878,656.006714 451.112030,670.885437 462.975647,685.352905 
	C476.227631,701.513489 487.434753,718.883545 494.171661,738.683350 
	C498.519897,751.462952 501.294922,764.772644 504.925079,777.802979 
	C513.033752,806.908264 535.726074,823.823547 566.694763,823.982666 
	C587.859802,824.091431 609.026672,824.179443 630.190735,824.017090 
	C655.468384,823.823059 680.822266,824.451538 705.995728,822.656433 
	C726.489990,821.195007 742.860046,810.391602 751.914368,791.434814 
	C756.398987,782.045410 758.992432,771.587769 761.305237,761.356567 
	C768.623779,728.981628 784.491211,701.277344 806.604797,676.993774 
	C826.652710,654.978577 843.164795,630.717285 854.845642,603.311035 
	C864.311584,581.101379 870.440674,557.835144 871.727539,533.791016 
	C872.807129,513.621521 872.606384,493.353455 869.204102,473.174408 
	C865.384583,450.521240 859.365662,428.678223 849.454346,407.971039 
	C831.758057,370.998932 806.018677,340.796356 772.615662,317.050446 
	C734.614136,290.035492 692.334717,274.467621 645.922302,271.283264 
	C629.796631,270.176910 613.392273,271.676971 597.216003,273.117828 
	C574.803833,275.114075 553.566223,282.078705 533.215454,291.464325 
	C494.862091,309.152618 462.517487,334.501404 437.103119,368.396942 
	C409.163544,405.660461 393.578400,447.740204 390.223755,494.019165 
	C388.593567,516.507935 389.881256,539.089905 394.970215,561.296814 
	C401.463348,589.631165 412.103119,616.188354 428.166443,641.309448 
M736.038208,922.386108 
	C736.358826,920.104614 736.930969,917.825928 736.956116,915.541199 
	C737.060547,906.045166 737.060364,896.546753 736.987793,887.050171 
	C736.822998,865.481995 725.815125,858.258484 708.763672,858.135620 
	C656.279541,857.757324 603.790894,857.946472 551.304199,858.032227 
	C538.602112,858.052979 528.622803,865.618530 526.161804,877.173889 
	C524.930664,882.954590 524.058411,888.955261 524.145081,894.839966 
	C524.281494,904.089966 524.713806,913.432983 526.210388,922.541199 
	C528.150085,934.346252 533.860718,944.491638 545.548035,948.995789 
	C558.122131,953.841858 564.942749,962.248169 567.283875,975.422119 
	C570.576172,993.948425 586.673767,1003.531860 602.161255,1003.123718 
	C621.642456,1002.610291 641.148010,1003.080078 660.641541,1002.930298 
	C664.398743,1002.901489 668.224731,1002.285950 671.889038,1001.402161 
	C685.077148,998.221680 691.457153,988.298889 694.902222,976.370850 
	C698.278687,964.679810 705.068054,956.281006 715.420898,950.151062 
	C725.794373,944.008972 732.967712,935.135803 736.038208,922.386108 
M938.015991,514.966492 
	C939.929321,518.743713 941.308533,522.936890 943.862061,526.215393 
	C950.029297,534.133667 959.276917,535.773010 968.459778,535.883545 
	C995.439087,536.208191 1022.434204,536.385254 1049.401733,535.734558 
	C1056.374634,535.566345 1063.914917,533.321106 1070.049683,529.948059 
	C1079.432373,524.789307 1080.651367,515.072449 1080.035767,505.124878 
	C1079.508179,496.601227 1076.137939,489.753510 1067.843262,486.963013 
	C1061.665161,484.884613 1055.008789,483.288910 1048.537964,483.184662 
	C1022.727478,482.768799 996.905945,482.954132 971.089417,483.091553 
	C966.830261,483.114227 962.456238,483.540222 958.340515,484.586761 
	C943.358459,488.396362 937.480591,497.128143 938.015991,514.966492 
M324.130768,496.575867 
	C318.089233,484.939392 307.123901,482.191498 295.612885,482.148224 
	C266.199951,482.037567 236.779129,482.437439 207.372498,483.113342 
	C197.070160,483.350159 189.449921,488.886322 185.846954,498.735199 
	C182.322327,508.369995 183.197479,517.630005 190.179153,525.695923 
	C196.450989,532.941833 205.088455,534.757019 213.952652,534.880310 
	C235.753693,535.183777 257.562012,535.071899 279.366486,534.955322 
	C286.638550,534.916443 293.905151,534.182983 301.178925,534.069763 
	C317.839935,533.810364 332.813751,516.625000 324.130768,496.575867 
M929.500000,249.000595 
	C937.099304,241.075531 944.927307,233.354828 952.239197,225.172913 
	C961.085938,215.273483 961.643860,204.255814 953.226990,194.106857 
	C943.452942,182.321426 927.951172,178.133316 916.192444,189.519135 
	C893.115784,211.864151 870.569641,234.760910 847.996521,257.619507 
	C841.833252,263.860687 839.149292,271.616150 841.782654,280.407013 
	C847.843262,300.639435 871.608582,306.723907 886.590759,291.880280 
	C900.787659,277.814728 914.868286,263.631866 929.500000,249.000595 
M345.892212,260.586212 
	C357.029755,271.332214 368.023621,282.232239 379.339386,292.787201 
	C395.238647,307.617493 414.793427,298.778137 421.390045,281.135132 
	C422.432831,278.346161 422.572968,274.995789 422.296295,271.981537 
	C421.608337,264.486298 417.203400,258.782898 412.127930,253.676086 
	C392.523499,233.950623 372.842133,214.301422 353.132812,194.680679 
	C350.672699,192.231628 348.071747,189.826569 345.197235,187.908966 
	C335.157898,181.211563 323.194977,179.895157 311.581421,192.810196 
	C303.544739,201.747467 302.197327,215.650864 310.353943,224.561508 
	C321.576874,236.821915 333.664795,248.290527 345.892212,260.586212 
M877.022461,790.477539 
	C889.534790,802.671570 902.083496,814.828674 914.547729,827.071594 
	C924.283752,836.634766 935.467041,837.862488 946.300842,829.765808 
	C957.996704,821.025085 962.490845,804.789856 952.077820,793.749329 
	C932.788391,773.297607 913.025696,753.290649 893.355591,733.200806 
	C889.178223,728.934204 884.904968,724.608521 880.060547,721.179504 
	C869.829102,713.937378 856.607971,716.500488 847.673584,726.863525 
	C839.012878,736.908875 838.527954,750.185181 847.074707,759.457153 
	C856.653687,769.849060 866.687073,779.822021 877.022461,790.477539 
M397.509094,718.005798 
	C392.040955,720.137634 385.938782,721.360901 381.261017,724.625366 
	C375.052002,728.958496 369.831604,734.760559 364.402435,740.149109 
	C347.385834,757.037964 330.380615,773.940857 313.604248,791.066772 
	C310.798218,793.931213 308.466980,797.685120 307.097717,801.456909 
	C302.036469,815.398987 312.289551,827.949280 325.686127,833.849365 
	C335.189514,838.034790 343.202148,833.079590 349.815063,826.550171 
	C371.376801,805.260986 392.849213,783.876770 414.052216,762.231628 
	C420.168365,755.988037 424.633331,748.490540 422.371521,738.976318 
	C419.360107,726.309021 411.010498,719.679504 397.509094,718.005798 
z"/>
<path fill="#E9A185" opacity="1.000000" stroke="none" 
	d="
M428.032959,640.971558 
	C412.103119,616.188354 401.463348,589.631165 394.970215,561.296814 
	C389.881256,539.089905 388.593567,516.507935 390.223755,494.019165 
	C393.578400,447.740204 409.163544,405.660461 437.103119,368.396942 
	C462.517487,334.501404 494.862091,309.152618 533.215454,291.464325 
	C553.566223,282.078705 574.803833,275.114075 597.216003,273.117828 
	C613.392273,271.676971 629.796631,270.176910 645.922302,271.283264 
	C692.334717,274.467621 734.614136,290.035492 772.615662,317.050446 
	C806.018677,340.796356 831.758057,370.998932 849.454346,407.971039 
	C859.365662,428.678223 865.384583,450.521240 869.204102,473.174408 
	C872.606384,493.353455 872.807129,513.621521 871.727539,533.791016 
	C870.440674,557.835144 864.311584,581.101379 854.845642,603.311035 
	C843.164795,630.717285 826.652710,654.978577 806.604797,676.993774 
	C784.491211,701.277344 768.623779,728.981628 761.305237,761.356567 
	C758.992432,771.587769 756.398987,782.045410 751.914368,791.434814 
	C742.860046,810.391602 726.489990,821.195007 705.995728,822.656433 
	C680.822266,824.451538 655.468384,823.823059 630.190735,824.017090 
	C609.026672,824.179443 587.859802,824.091431 566.694763,823.982666 
	C535.726074,823.823547 513.033752,806.908264 504.925079,777.802979 
	C501.294922,764.772644 498.519897,751.462952 494.171661,738.683350 
	C487.434753,718.883545 476.227631,701.513489 462.975647,685.352905 
	C451.112030,670.885437 439.749878,656.006714 428.032959,640.971558 
M607.000000,722.500000 
	C607.000000,692.334412 607.080872,662.168457 606.946106,632.003479 
	C606.910034,623.925659 605.141663,616.161682 599.430298,609.977112 
	C593.217834,603.249878 586.925781,596.586060 580.440796,590.123047 
	C571.709900,581.421814 562.507751,573.181824 553.984985,564.286804 
	C547.001953,556.998779 541.328979,548.819214 544.012024,537.710327 
	C546.666077,526.721680 560.427734,513.938416 574.393860,519.248962 
	C579.511108,521.194763 584.481812,524.458862 588.485840,528.221558 
	C599.639282,538.702576 610.555115,549.477356 620.974854,560.684570 
	C628.504395,568.783142 635.974915,566.846802 642.629272,559.810608 
	C652.811707,549.043884 662.989868,538.245789 673.696045,528.011475 
	C681.029419,521.001282 689.625061,515.461487 700.546448,519.128418 
	C711.889709,522.937012 718.159668,531.203918 718.728271,542.262085 
	C719.137085,550.213013 715.240295,557.289978 709.467346,563.045837 
	C697.429016,575.048584 685.516602,587.179626 673.370422,599.071960 
	C662.156921,610.050964 656.403381,622.564270 656.737732,638.904297 
	C657.545776,678.387146 656.968445,717.897827 657.044312,757.397095 
	C657.052734,761.800842 657.671753,766.203430 658.036011,770.978699 
	C671.435303,770.978699 684.254700,771.381653 697.014893,770.691406 
	C700.149963,770.521851 703.865173,767.347900 705.913696,764.535522 
	C708.131042,761.491516 709.183289,757.346802 709.929810,753.523376 
	C716.149292,721.668335 728.212830,692.317993 748.085388,666.577271 
	C758.520142,653.061401 770.584595,640.805298 781.045654,627.307922 
	C812.414734,586.834229 825.266418,540.923828 820.053833,489.947327 
	C817.576721,465.723419 809.770630,443.255829 798.127380,422.009460 
	C787.499268,402.615509 773.829346,385.691010 757.433655,370.830750 
	C741.649963,356.525177 723.984131,345.270782 704.437561,336.996735 
	C676.792236,325.294342 647.998352,320.191833 618.090942,324.129578 
	C604.415588,325.930115 590.645691,328.216980 577.426025,332.038452 
	C543.826721,341.751251 515.482178,360.138672 492.095551,386.274567 
	C476.741302,403.433899 465.028015,422.680023 456.737549,444.112335 
	C450.563202,460.074249 446.024384,476.453796 445.027588,493.565857 
	C444.241699,507.057129 442.827515,520.770508 444.351593,534.080688 
	C447.036926,557.532410 454.772552,579.722229 466.026398,600.625183 
	C476.418610,619.927612 489.922607,636.885803 504.553192,653.036377 
	C525.317200,675.957642 538.822693,702.856079 548.010437,732.128662 
	C551.075867,741.895569 553.857666,751.758545 557.195435,761.430420 
	C559.788757,768.945068 565.717041,772.052979 573.490051,772.008423 
	C580.489197,771.968262 587.488892,772.020386 594.488220,771.994690 
	C602.919983,771.963684 606.976501,767.919922 606.993713,759.499451 
	C607.018250,747.499695 607.000000,735.499817 607.000000,722.500000 
z"/>
<path fill="#EBA286" opacity="1.000000" stroke="none" 
	d="
M736.012634,922.809509 
	C732.967712,935.135803 725.794373,944.008972 715.420898,950.151062 
	C705.068054,956.281006 698.278687,964.679810 694.902222,976.370850 
	C691.457153,988.298889 685.077148,998.221680 671.889038,1001.402161 
	C668.224731,1002.285950 664.398743,1002.901489 660.641541,1002.930298 
	C641.148010,1003.080078 621.642456,1002.610291 602.161255,1003.123718 
	C586.673767,1003.531860 570.576172,993.948425 567.283875,975.422119 
	C564.942749,962.248169 558.122131,953.841858 545.548035,948.995789 
	C533.860718,944.491638 528.150085,934.346252 526.210388,922.541199 
	C524.713806,913.432983 524.281494,904.089966 524.145081,894.839966 
	C524.058411,888.955261 524.930664,882.954590 526.161804,877.173889 
	C528.622803,865.618530 538.602112,858.052979 551.304199,858.032227 
	C603.790894,857.946472 656.279541,857.757324 708.763672,858.135620 
	C725.815125,858.258484 736.822998,865.481995 736.987793,887.050171 
	C737.060364,896.546753 737.060547,906.045166 736.956116,915.541199 
	C736.930969,917.825928 736.358826,920.104614 736.012634,922.809509 
z"/>
<path fill="#E49E82" opacity="1.000000" stroke="none" 
	d="
M938.008545,514.520447 
	C937.480591,497.128143 943.358459,488.396362 958.340515,484.586761 
	C962.456238,483.540222 966.830261,483.114227 971.089417,483.091553 
	C996.905945,482.954132 1022.727478,482.768799 1048.537964,483.184662 
	C1055.008789,483.288910 1061.665161,484.884613 1067.843262,486.963013 
	C1076.137939,489.753510 1079.508179,496.601227 1080.035767,505.124878 
	C1080.651367,515.072449 1079.432373,524.789307 1070.049683,529.948059 
	C1063.914917,533.321106 1056.374634,535.566345 1049.401733,535.734558 
	C1022.434204,536.385254 995.439087,536.208191 968.459778,535.883545 
	C959.276917,535.773010 950.029297,534.133667 943.862061,526.215393 
	C941.308533,522.936890 939.929321,518.743713 938.008545,514.520447 
z"/>
<path fill="#E49E82" opacity="1.000000" stroke="none" 
	d="
M324.320007,496.913208 
	C332.813751,516.625000 317.839935,533.810364 301.178925,534.069763 
	C293.905151,534.182983 286.638550,534.916443 279.366486,534.955322 
	C257.562012,535.071899 235.753693,535.183777 213.952652,534.880310 
	C205.088455,534.757019 196.450989,532.941833 190.179153,525.695923 
	C183.197479,517.630005 182.322327,508.369995 185.846954,498.735199 
	C189.449921,488.886322 197.070160,483.350159 207.372498,483.113342 
	C236.779129,482.437439 266.199951,482.037567 295.612885,482.148224 
	C307.123901,482.191498 318.089233,484.939392 324.320007,496.913208 
z"/>
<path fill="#E59E83" opacity="1.000000" stroke="none" 
	d="
M929.250000,249.250610 
	C914.868286,263.631866 900.787659,277.814728 886.590759,291.880280 
	C871.608582,306.723907 847.843262,300.639435 841.782654,280.407013 
	C839.149292,271.616150 841.833252,263.860687 847.996521,257.619507 
	C870.569641,234.760910 893.115784,211.864151 916.192444,189.519135 
	C927.951172,178.133316 943.452942,182.321426 953.226990,194.106857 
	C961.643860,204.255814 961.085938,215.273483 952.239197,225.172913 
	C944.927307,233.354828 937.099304,241.075531 929.250000,249.250610 
z"/>
<path fill="#E79F84" opacity="1.000000" stroke="none" 
	d="
M345.637177,260.342285 
	C333.664795,248.290527 321.576874,236.821915 310.353943,224.561508 
	C302.197327,215.650864 303.544739,201.747467 311.581421,192.810196 
	C323.194977,179.895157 335.157898,181.211563 345.197235,187.908966 
	C348.071747,189.826569 350.672699,192.231628 353.132812,194.680679 
	C372.842133,214.301422 392.523499,233.950623 412.127930,253.676086 
	C417.203400,258.782898 421.608337,264.486298 422.296295,271.981537 
	C422.572968,274.995789 422.432831,278.346161 421.390045,281.135132 
	C414.793427,298.778137 395.238647,307.617493 379.339386,292.787201 
	C368.023621,282.232239 357.029755,271.332214 345.637177,260.342285 
z"/>
<path fill="#E49D82" opacity="1.000000" stroke="none" 
	d="
M876.772583,790.227417 
	C866.687073,779.822021 856.653687,769.849060 847.074707,759.457153 
	C838.527954,750.185181 839.012878,736.908875 847.673584,726.863525 
	C856.607971,716.500488 869.829102,713.937378 880.060547,721.179504 
	C884.904968,724.608521 889.178223,728.934204 893.355591,733.200806 
	C913.025696,753.290649 932.788391,773.297607 952.077820,793.749329 
	C962.490845,804.789856 957.996704,821.025085 946.300842,829.765808 
	C935.467041,837.862488 924.283752,836.634766 914.547729,827.071594 
	C902.083496,814.828674 889.534790,802.671570 876.772583,790.227417 
z"/>
<path fill="#E69F83" opacity="1.000000" stroke="none" 
	d="
M397.935791,718.007446 
	C411.010498,719.679504 419.360107,726.309021 422.371521,738.976318 
	C424.633331,748.490540 420.168365,755.988037 414.052216,762.231628 
	C392.849213,783.876770 371.376801,805.260986 349.815063,826.550171 
	C343.202148,833.079590 335.189514,838.034790 325.686127,833.849365 
	C312.289551,827.949280 302.036469,815.398987 307.097717,801.456909 
	C308.466980,797.685120 310.798218,793.931213 313.604248,791.066772 
	C330.380615,773.940857 347.385834,757.037964 364.402435,740.149109 
	C369.831604,734.760559 375.052002,728.958496 381.261017,724.625366 
	C385.938782,721.360901 392.040955,720.137634 397.935791,718.007446 
z"/>
<path fill="#E9A185" opacity="1.000000" stroke="none" 
	d="
M657.824219,161.932022 
	C657.542786,168.884186 657.772095,175.904816 656.851929,182.771362 
	C655.678040,191.530029 650.114258,197.453384 642.115601,200.800629 
	C633.420959,204.439133 625.202576,203.788330 617.296387,197.926590 
	C608.576660,191.461761 607.408020,181.861618 607.218567,172.676727 
	C606.624329,143.867157 606.552612,115.027657 607.192017,86.220024 
	C607.504761,72.128670 614.332092,62.610764 626.236633,60.323235 
	C644.444397,56.824505 656.154480,68.559166 656.985840,86.180138 
	C656.989929,110.276009 656.977234,133.483444 657.035522,156.690689 
	C657.039917,158.438446 657.549500,160.184937 657.824219,161.932022 
z"/>
<path fill="#EBA286" opacity="1.000000" stroke="none" 
	d="
M657.884033,161.472916 
	C657.549500,160.184937 657.039917,158.438446 657.035522,156.690689 
	C656.977234,133.483444 656.989929,110.276009 656.968689,86.615707 
	C657.272034,88.077675 657.863464,89.991669 657.869690,91.907570 
	C657.944641,114.942810 657.932983,137.978348 657.884033,161.472916 
z"/>
<path fill="#FFFFFF" opacity="1.000000" stroke="none" 
	d="
M607.000000,723.000000 
	C607.000000,735.499817 607.018250,747.499695 606.993713,759.499451 
	C606.976501,767.919922 602.919983,771.963684 594.488220,771.994690 
	C587.488892,772.020386 580.489197,771.968262 573.490051,772.008423 
	C565.717041,772.052979 559.788757,768.945068 557.195435,761.430420 
	C553.857666,751.758545 551.075867,741.895569 548.010437,732.128662 
	C538.822693,702.856079 525.317200,675.957642 504.553192,653.036377 
	C489.922607,636.885803 476.418610,619.927612 466.026398,600.625183 
	C454.772552,579.722229 447.036926,557.532410 444.351593,534.080688 
	C442.827515,520.770508 444.241699,507.057129 445.027588,493.565857 
	C446.024384,476.453796 450.563202,460.074249 456.737549,444.112335 
	C465.028015,422.680023 476.741302,403.433899 492.095551,386.274567 
	C515.482178,360.138672 543.826721,341.751251 577.426025,332.038452 
	C590.645691,328.216980 604.415588,325.930115 618.090942,324.129578 
	C647.998352,320.191833 676.792236,325.294342 704.437561,336.996735 
	C723.984131,345.270782 741.649963,356.525177 757.433655,370.830750 
	C773.829346,385.691010 787.499268,402.615509 798.127380,422.009460 
	C809.770630,443.255829 817.576721,465.723419 820.053833,489.947327 
	C825.266418,540.923828 812.414734,586.834229 781.045654,627.307922 
	C770.584595,640.805298 758.520142,653.061401 748.085388,666.577271 
	C728.212830,692.317993 716.149292,721.668335 709.929810,753.523376 
	C709.183289,757.346802 708.131042,761.491516 705.913696,764.535522 
	C703.865173,767.347900 700.149963,770.521851 697.014893,770.691406 
	C684.254700,771.381653 671.435303,770.978699 658.036011,770.978699 
	C657.671753,766.203430 657.052734,761.800842 657.044312,757.397095 
	C656.968445,717.897827 657.545776,678.387146 656.737732,638.904297 
	C656.403381,622.564270 662.156921,610.050964 673.370422,599.071960 
	C685.516602,587.179626 697.429016,575.048584 709.467346,563.045837 
	C715.240295,557.289978 719.137085,550.213013 718.728271,542.262085 
	C718.159668,531.203918 711.889709,522.937012 700.546448,519.128418 
	C689.625061,515.461487 681.029419,521.001282 673.696045,528.011475 
	C662.989868,538.245789 652.811707,549.043884 642.629272,559.810608 
	C635.974915,566.846802 628.504395,568.783142 620.974854,560.684570 
	C610.555115,549.477356 599.639282,538.702576 588.485840,528.221558 
	C584.481812,524.458862 579.511108,521.194763 574.393860,519.248962 
	C560.427734,513.938416 546.666077,526.721680 544.012024,537.710327 
	C541.328979,548.819214 547.001953,556.998779 553.984985,564.286804 
	C562.507751,573.181824 571.709900,581.421814 580.440796,590.123047 
	C586.925781,596.586060 593.217834,603.249878 599.430298,609.977112 
	C605.141663,616.161682 606.910034,623.925659 606.946106,632.003479 
	C607.080872,662.168457 607.000000,692.334412 607.000000,723.000000 
z"/>
</svg>